<svg width="19" height="18" viewBox="0 0 19 18" fill="none" xmlns="http://www.w3.org/2000/svg">
<path d="M13.1675 12.7502C13.48 12.7502 13.7457 12.641 13.9647 12.4225C14.1837 12.204 14.293 11.9382 14.2925 11.6252C14.2925 11.3127 14.1832 11.0472 13.9647 10.8287C13.7462 10.6102 13.4805 10.5007 13.1675 10.5002C12.855 10.5002 12.5895 10.6097 12.371 10.8287C12.1525 11.0477 12.043 11.3132 12.0425 11.6252C12.0425 11.9377 12.152 12.2035 12.371 12.4225C12.59 12.6415 12.8555 12.7507 13.1675 12.7502ZM13.1675 15.0002C13.555 15.0002 13.9112 14.9095 14.2362 14.728C14.5612 14.5465 14.8237 14.306 15.0237 14.0065C14.7487 13.844 14.455 13.719 14.1425 13.6315C13.83 13.544 13.505 13.5002 13.1675 13.5002C12.83 13.5002 12.505 13.544 12.1925 13.6315C11.88 13.719 11.5862 13.844 11.3112 14.0065C11.5112 14.3065 11.7737 14.5472 12.0987 14.7287C12.4237 14.9102 12.78 15.0007 13.1675 15.0002ZM9.41748 16.5002C7.67998 16.0627 6.24548 15.0657 5.11398 13.5092C3.98248 11.9527 3.41698 10.2247 3.41748 8.32524V3.75024L9.41748 1.50024L15.4175 3.75024V8.00649C15.18 7.90649 14.9362 7.81574 14.6862 7.73424C14.4362 7.65274 14.18 7.59374 13.9175 7.55724V4.80024L9.41748 3.11274L4.91748 4.80024V8.32524C4.91748 8.91274 4.99573 9.50024 5.15223 10.0877C5.30873 10.6752 5.52748 11.2347 5.80848 11.7662C6.08948 12.2972 6.42998 12.7877 6.82998 13.2377C7.22998 13.6877 7.67373 14.0627 8.16123 14.3627C8.29873 14.7627 8.47998 15.144 8.70498 15.5065C8.92998 15.869 9.18623 16.194 9.47373 16.4815C9.46123 16.4815 9.45198 16.4847 9.44598 16.4912C9.43998 16.4977 9.43048 16.5007 9.41748 16.5002ZM13.1675 16.5002C12.13 16.5002 11.2457 16.1345 10.5147 15.403C9.78373 14.6715 9.41798 13.7872 9.41748 12.7502C9.41748 11.7127 9.78323 10.8285 10.5147 10.0975C11.2462 9.36649 12.1305 9.00074 13.1675 9.00024C14.205 9.00024 15.0895 9.36599 15.821 10.0975C16.5525 10.829 16.918 11.7132 16.9175 12.7502C16.9175 13.7877 16.5517 14.6722 15.8202 15.4037C15.0887 16.1352 14.2045 16.5007 13.1675 16.5002Z" fill="#C9CAD7"/>
</svg>
