<svg width="19" height="18" viewBox="0 0 19 18" fill="none" xmlns="http://www.w3.org/2000/svg">
<path fill-rule="evenodd" clip-rule="evenodd" d="M14.721 14.3024C12.4289 16.5948 9.03481 17.09 6.25729 15.8055C5.84726 15.6404 5.51109 15.507 5.19151 15.507C4.30135 15.5123 3.19335 16.3754 2.6175 15.8002C2.04165 15.2243 2.90543 14.1155 2.90543 13.2199C2.90543 12.9003 2.77729 12.5701 2.61222 12.1593C1.3271 9.38222 1.82306 5.98702 4.11517 3.6954C7.04118 0.768324 11.795 0.768324 14.721 3.69465C17.6523 6.62625 17.647 11.3761 14.721 14.3024Z" stroke="#C9CAD8" stroke-width="1.5" stroke-linecap="round" stroke-linejoin="round"/>
<path d="M12.372 9.30981H12.3787" stroke="#C9CAD8" stroke-width="2" stroke-linecap="round" stroke-linejoin="round"/>
<path d="M9.36528 9.30981H9.37203" stroke="#C9CAD8" stroke-width="2" stroke-linecap="round" stroke-linejoin="round"/>
<path d="M6.35856 9.30981H6.36531" stroke="#C9CAD8" stroke-width="2" stroke-linecap="round" stroke-linejoin="round"/>
</svg>
