<svg width="19" height="18" viewBox="0 0 19 18" fill="none" xmlns="http://www.w3.org/2000/svg">
<path d="M14.6675 10.5V5.625L10.9175 3L7.16748 5.625V6.75H5.66748V4.875L10.9175 1.125L16.1675 4.875V10.5H14.6675ZM11.2925 6H12.0425V5.25H11.2925V6ZM9.79248 6H10.5425V5.25H9.79248V6ZM11.2925 7.5H12.0425V6.75H11.2925V7.5ZM9.79248 7.5H10.5425V6.75H9.79248V7.5ZM5.66748 13.875L10.88 15.3L15.3425 13.9125C15.28 13.8 15.1892 13.703 15.0702 13.6215C14.9512 13.54 14.817 13.4995 14.6675 13.5H10.88C10.5425 13.5 10.2737 13.4875 10.0737 13.4625C9.87373 13.4375 9.66748 13.3875 9.45498 13.3125L7.71123 12.7313L8.12373 11.2687L9.64248 11.775C9.85498 11.8375 10.105 11.8875 10.3925 11.925C10.68 11.9625 11.105 11.9875 11.6675 12C11.6675 11.8625 11.627 11.7313 11.546 11.6063C11.465 11.4812 11.368 11.4 11.255 11.3625L6.86748 9.75H5.66748V13.875ZM1.16748 16.5V8.25H6.86748C6.95498 8.25 7.04248 8.2595 7.12998 8.2785C7.21748 8.2975 7.29873 8.31925 7.37373 8.34375L11.78 9.975C12.1925 10.125 12.527 10.3875 12.7835 10.7625C13.04 11.1375 13.168 11.55 13.1675 12H14.6675C15.2925 12 15.8237 12.2063 16.2612 12.6188C16.6987 13.0313 16.9175 13.575 16.9175 14.25V15L10.9175 16.875L5.66748 15.4125V16.5H1.16748ZM2.66748 15H4.16748V9.75H2.66748V15Z" fill="#D0D1DB"/>
</svg>
