<svg width="21" height="21" viewBox="0 0 21 21" fill="none" xmlns="http://www.w3.org/2000/svg">
<path d="M8.57023 4.50578C8.62116 4.60945 8.6548 4.72046 8.66987 4.83459L8.9483 8.97451V8.97451L9.08651 11.0553C9.08794 11.2693 9.12151 11.4819 9.18615 11.6863C9.35308 12.0828 9.75464 12.3348 10.1915 12.3173L16.8488 11.8818C17.1371 11.877 17.4155 11.9849 17.6227 12.1815C17.7954 12.3454 17.9069 12.5598 17.942 12.7904L17.9538 12.9304C17.6783 16.7452 14.8766 19.9269 11.0698 20.7482C7.26303 21.5696 3.35934 19.8346 1.47819 16.4852C0.935868 15.5121 0.597131 14.4425 0.481862 13.3392C0.433709 13.0126 0.412506 12.6828 0.41846 12.3528C0.412515 8.26299 3.32495 4.72721 7.40181 3.87482C7.89249 3.79842 8.37351 4.05818 8.57023 4.50578Z" fill="#0BB197"/>
<path opacity="0.4" d="M11.2874 0.951014C15.8473 1.06702 19.6797 4.34598 20.4174 8.76249L20.4104 8.79507V8.79507L20.3902 8.84247L20.3931 8.97256C20.3826 9.14491 20.3161 9.31074 20.2014 9.44468C20.0819 9.58421 19.9187 9.67923 19.739 9.7161L19.6294 9.73114L11.9486 10.2288C11.6931 10.254 11.4388 10.1716 11.2488 10.0021C11.0904 9.86093 10.9892 9.67029 10.9606 9.46487L10.4451 1.79526C10.4361 1.76932 10.4361 1.74121 10.4451 1.71528C10.4521 1.50387 10.5452 1.30404 10.7035 1.16043C10.8618 1.01682 11.0721 0.941395 11.2874 0.951014Z" fill="#0BB197"/>
</svg>
