<svg width="39" height="38" viewBox="0 0 39 38" fill="none" xmlns="http://www.w3.org/2000/svg">
<path d="M7.1562 14.3026C4.39554 14.9451 3.29287 25.219 1 25.219V38H4.47978H37.9962L38 11.8558C35.6803 13.7711 34.2096 -0.227844 31.8438 1.08737C29.2427 2.53339 28.8023 18.8197 25.6876 18.8197C23.2341 18.8197 21.9574 12.6356 19.5314 13.7379C16.6852 15.0312 16.1793 31.7234 13.3124 32.5054C10.7861 33.1946 9.68537 13.7139 7.1562 14.3026Z" fill="url(#paint0_linear_344_9871)" fill-opacity="0.25"/>
<path d="M1 25.0533C3.29287 25.0533 4.39554 14.8497 7.1562 14.2116C9.68537 13.627 10.7861 32.9744 13.3124 32.2899C16.1793 31.5132 16.6852 14.9352 19.5314 13.6508C21.9574 12.556 23.2341 18.6978 25.6876 18.6978C28.8023 18.6978 29.2427 2.52291 31.8438 1.08677C34.2096 -0.219446 35.6803 13.6838 38 11.7815" stroke="#044982" stroke-width="1.3578" stroke-linecap="round"/>
<defs>
<linearGradient id="paint0_linear_344_9871" x1="19.5" y1="1" x2="19.5" y2="38" gradientUnits="userSpaceOnUse">
<stop stop-color="#EEC202"/>
<stop offset="1" stop-color="#EEC202" stop-opacity="0"/>
</linearGradient>
</defs>
</svg>
