<svg width="25" height="25" viewBox="0 0 25 25" fill="none" xmlns="http://www.w3.org/2000/svg">
<path d="M10.5702 6.50578C10.6212 6.60945 10.6548 6.72046 10.6699 6.83459L10.9483 10.9745V10.9745L11.0865 13.0553C11.0879 13.2693 11.1215 13.4819 11.1861 13.6863C11.3531 14.0828 11.7546 14.3348 12.1915 14.3173L18.8488 13.8818C19.1371 13.877 19.4155 13.9849 19.6227 14.1815C19.7954 14.3454 19.9069 14.5598 19.942 14.7904L19.9538 14.9304C19.6783 18.7452 16.8766 21.9269 13.0698 22.7482C9.26303 23.5696 5.35934 21.8346 3.47819 18.4852C2.93587 17.5121 2.59713 16.4425 2.48186 15.3392C2.43371 15.0126 2.41251 14.6828 2.41846 14.3528C2.41251 10.263 5.32495 6.72721 9.40181 5.87482C9.89249 5.79842 10.3735 6.05818 10.5702 6.50578Z" fill="#EEC202"/>
<path opacity="0.4" d="M13.2874 2.95101C17.8473 3.06702 21.6797 6.34598 22.4174 10.7625L22.4104 10.7951V10.7951L22.3902 10.8425L22.3931 10.9726C22.3826 11.1449 22.3161 11.3107 22.2014 11.4447C22.0819 11.5842 21.9187 11.6792 21.739 11.7161L21.6294 11.7311L13.9486 12.2288C13.6931 12.254 13.4388 12.1716 13.2488 12.0021C13.0904 11.8609 12.9892 11.6703 12.9606 11.4649L12.4451 3.79526C12.4361 3.76932 12.4361 3.74121 12.4451 3.71528C12.4521 3.50387 12.5452 3.30404 12.7035 3.16043C12.8618 3.01682 13.0721 2.94139 13.2874 2.95101Z" fill="#EEC202"/>
</svg>
