<svg width="19" height="18" viewBox="0 0 19 18" fill="none" xmlns="http://www.w3.org/2000/svg">
<path d="M7.28539 15.5783V13.2783C7.28538 12.6932 7.76232 12.2179 8.35324 12.2139H10.5178C11.1115 12.2139 11.5929 12.6905 11.5929 13.2783V13.2783V15.5855C11.5927 16.0822 11.9932 16.4881 12.4948 16.4998H13.9378C15.3763 16.4998 16.5425 15.3453 16.5425 13.9211V13.9211V7.37813C16.5348 6.81788 16.2691 6.29177 15.821 5.94953L10.8858 2.01373C10.0212 1.32843 8.79213 1.32843 7.92754 2.01373L3.014 5.95667C2.56417 6.29752 2.29802 6.82451 2.29248 7.38528V13.9211C2.29248 15.3453 3.45864 16.4998 4.89716 16.4998H6.3402C6.85425 16.4998 7.27096 16.0872 7.27096 15.5783V15.5783" stroke="#C9CAD7" stroke-width="1.5" stroke-linecap="round" stroke-linejoin="round"/>
</svg>
