<svg width="19" height="18" viewBox="0 0 19 18" fill="none" xmlns="http://www.w3.org/2000/svg">
<g clip-path="url(#clip0_418_1910)">
<path d="M17.5836 11.2449H17.8474L16.7927 10.2125V5.42812H17.855L16.5638 4.57594V3.51788H16.7924V3.07069H15.1932V3.51788H15.4219V3.82219L13.8922 2.8125L9.92936 5.42812H10.9916V10.2125L9.93695 11.2449H10.2008V14.8269C10.1552 14.8147 10.1084 14.808 10.0613 14.807C9.99404 14.807 9.93048 14.8202 9.87029 14.841C9.82698 14.5538 9.34042 14.4717 9.19529 14.6838C9.20232 14.6526 9.20682 14.6205 9.20682 14.5873C9.2063 14.4703 9.15932 14.3582 9.0762 14.2758C8.99308 14.1933 8.88064 14.1473 8.76357 14.1477C8.71773 14.1477 8.67526 14.157 8.6342 14.1702V11.2449H8.89801L7.84332 10.2125V5.42812H8.90561L7.61467 4.57622V3.51788H7.84332V3.07069H6.24414V3.51788H6.47279V3.82247L4.94279 2.8125L0.97998 5.42812H2.04226V10.2125L0.987574 11.2449H1.25139V16.4053H0.97998V17.4375H17.855V16.4053H17.5836V11.2449ZM11.5544 5.42812H16.2302V10.2125H11.5544V5.42812ZM17.0211 11.8021V16.4053H13.3648V13.0511H13.6286V12.5347H11.2554V13.0511H11.5193V16.4053H10.7633V11.8021H17.0211ZM12.7916 14.7279C12.7916 14.6318 12.8709 14.5541 12.9697 14.5541C13.0681 14.5541 13.1474 14.6318 13.1474 14.7279C13.1474 14.8244 13.0681 14.9023 12.9697 14.9023C12.9465 14.9026 12.9235 14.8983 12.902 14.8897C12.8805 14.8811 12.861 14.8683 12.8444 14.8521C12.8279 14.8359 12.8147 14.8166 12.8056 14.7953C12.7966 14.774 12.7918 14.7511 12.7916 14.7279ZM3.84226 14.7279C3.84226 14.6318 3.92157 14.5541 4.02029 14.5541C4.11873 14.5541 4.19804 14.6318 4.19804 14.7279C4.19804 14.8244 4.11873 14.9023 4.02029 14.9023C3.99714 14.9026 3.97415 14.8983 3.95266 14.8897C3.93116 14.8811 3.91158 14.8683 3.89504 14.8521C3.87849 14.8359 3.86532 14.8166 3.85626 14.7953C3.8472 14.774 3.84245 14.7511 3.84226 14.7279ZM10.2008 16.0577C10.1932 16.056 10.1861 16.0529 10.178 16.0529C10.0961 16.0529 10.0303 16.1339 10.0303 16.0529C10.0303 15.9719 10.0961 15.9067 10.178 15.9067C10.1861 15.9067 10.1932 15.9098 10.2008 15.9112V16.0577ZM8.6342 16.0552V15.8268C8.78832 15.8366 8.91123 15.9609 8.91123 16.1156C8.91123 16.2714 8.78889 16.0715 8.6342 16.0552ZM10.0191 15.0638C10.0888 15.0638 10.1501 15.091 10.2008 15.131V15.3492C10.1504 15.309 10.088 15.2643 10.0191 15.2643C9.85511 15.2643 9.72179 15.5205 9.72179 15.3579C9.72179 15.1951 9.85511 15.0638 10.0191 15.0638ZM9.54264 15.7075C9.65345 15.7075 9.74289 15.7958 9.74289 15.9058C9.74289 16.0155 9.65345 15.8524 9.54264 15.8524C9.43182 15.8524 9.34239 16.0155 9.34239 15.9058C9.34239 15.7958 9.43211 15.7075 9.54264 15.7075ZM8.80323 14.6818C8.82945 14.6817 8.85544 14.6868 8.87971 14.6967C8.90398 14.7066 8.92606 14.7212 8.94468 14.7397C8.9633 14.7582 8.9781 14.7801 8.98824 14.8043C8.99838 14.8285 9.00365 14.8544 9.00376 14.8807C9.00376 14.9903 8.91404 14.8269 8.80323 14.8269C8.73179 14.8269 8.66936 14.8944 8.63392 14.913V14.7808C8.65115 14.7511 8.67582 14.7263 8.7055 14.7089C8.73518 14.6916 8.76885 14.6822 8.80323 14.6818ZM2.60476 5.42812H7.28054V10.2125H2.60476V5.42812ZM1.81389 11.8021H8.0717V16.4053H4.41545V13.0511H4.67926V12.5347H2.30607V13.0511H2.56989V16.4053H1.81389V11.8021Z" fill="white"/>
<path d="M16.775 12.5286H14.0682V15.2117H16.775V12.5286ZM15.2855 14.9437H14.3385V14.004H15.2855V14.9437ZM15.2855 13.7354H14.3385V12.796H15.2855V13.7354ZM16.5039 14.9437H15.5566V14.004H16.5039V14.9437ZM16.5039 13.7354H15.5566V12.796H16.5039V13.7354ZM12.5388 9.13387H15.2455V6.45074H12.5388V9.13387ZM14.0272 6.71878H14.9744V7.65787H14.0272V6.71878ZM14.0272 7.92674H14.9744V8.86612H14.0272V7.92674ZM12.8094 6.71878H13.7563V7.65787H12.8094V6.71878ZM12.8094 7.92674H13.7563V8.86612H12.8094V7.92674ZM3.58942 9.13387H6.29617V6.45074H3.58942V9.13387ZM5.07751 6.71878H6.02476V7.65787H5.07751V6.71878ZM5.07751 7.92674H6.02476V8.86612H5.07751V7.92674ZM3.8597 6.71878H4.80667V7.65787H3.8597V6.71878ZM3.8597 7.92674H4.80667V8.86612H3.8597V7.92674ZM7.8256 12.5286H5.11885V15.2117H7.8256V12.5286ZM6.33639 14.9437H5.38942V14.004H6.33639V14.9437ZM6.33639 13.7354H5.38942V12.796H6.33639V13.7354ZM7.55448 14.9437H6.60723V14.004H7.55448V14.9437ZM7.55448 13.7354H6.60723V12.796H7.55448V13.7354Z" fill="white"/>
</g>
<defs>
<clipPath id="clip0_418_1910">
<rect width="18" height="18" fill="white" transform="translate(0.41748)"/>
</clipPath>
</defs>
</svg>
