<svg width="19" height="18" viewBox="0 0 19 18" fill="none" xmlns="http://www.w3.org/2000/svg">
<g clip-path="url(#clip0_344_7153)">
<path d="M9.41743 13.0501C8.96491 13.0502 8.52895 12.8799 8.19638 12.573C7.86381 12.2661 7.65903 11.8452 7.62283 11.3941C6.4224 10.9692 5.41068 10.1339 4.76625 9.03557C4.12183 7.93725 3.88614 6.64658 4.10079 5.39139C4.31545 4.13619 4.96664 2.99719 5.93942 2.17543C6.9122 1.35367 8.14402 0.902001 9.41743 0.900147C10.7718 0.89995 12.0769 1.40872 13.0737 2.32559C14.0706 3.24245 14.6866 4.50045 14.7994 5.85015C14.8032 5.90869 14.7947 5.96738 14.7746 6.02248C14.7545 6.07758 14.7231 6.12788 14.6824 6.1702C14.6418 6.21252 14.5928 6.24593 14.5386 6.2683C14.4844 6.29067 14.4261 6.30152 14.3674 6.30015C14.2469 6.29693 14.1319 6.24913 14.0447 6.166C13.9574 6.08288 13.904 5.97033 13.8949 5.85015C13.8148 5.0544 13.524 4.29439 13.0525 3.64836C12.581 3.00233 11.9459 2.49363 11.2125 2.17462C10.4791 1.85562 9.67394 1.73783 8.87989 1.8334C8.08585 1.92896 7.33162 2.23442 6.69485 2.71833C6.05808 3.20223 5.56178 3.8471 5.25705 4.58655C4.95231 5.32599 4.85016 6.13329 4.96109 6.92534C5.07202 7.71738 5.39204 8.46555 5.8882 9.09282C6.38435 9.72009 7.03872 10.2038 7.78393 10.4941C7.91953 10.2012 8.13143 9.95002 8.39744 9.76707C8.66344 9.58411 8.97376 9.47607 9.29587 9.45426C9.61798 9.43245 9.94003 9.49767 10.2283 9.6431C10.5165 9.78852 10.7603 10.0088 10.9342 10.2808C11.1081 10.5529 11.2055 10.8667 11.2164 11.1893C11.2274 11.512 11.1513 11.8317 10.9962 12.1148C10.8411 12.398 10.6127 12.6342 10.335 12.7988C10.0572 12.9633 9.74028 13.0502 9.41743 13.0501ZM4.92553 10.8001H5.00743C5.35843 11.143 5.74813 11.4454 6.17023 11.7001H4.92553C4.42063 11.7001 4.01743 12.1024 4.01743 12.6001C4.01743 13.7782 4.57723 14.6557 5.52313 15.2578C6.48613 15.8725 7.85593 16.2001 9.41743 16.2001C10.9789 16.2001 12.3487 15.8725 13.3117 15.2578C14.2567 14.6548 14.8174 13.7791 14.8174 12.6001C14.8174 12.3615 14.7226 12.1325 14.5538 11.9638C14.385 11.795 14.1561 11.7001 13.9174 11.7001H12.0805C12.1306 11.4022 12.1306 11.0981 12.0805 10.8001H13.9174C14.3948 10.8001 14.8527 10.9898 15.1902 11.3274C15.5278 11.6649 15.7174 12.1228 15.7174 12.6001C15.7174 14.122 14.9677 15.2695 13.7959 16.0174C12.6421 16.7527 11.0869 17.1001 9.41743 17.1001C7.74793 17.1001 6.19273 16.7527 5.03893 16.0174C3.86713 15.2704 3.11743 14.1211 3.11743 12.6001C3.11743 11.5984 3.93013 10.8001 4.92553 10.8001ZM13.0174 6.30015C13.0179 6.90917 12.8637 7.50834 12.5693 8.0415C12.275 8.57466 11.8501 9.02436 11.3344 9.34845C11.0941 9.10629 10.8101 8.91178 10.4974 8.77515C11.0659 8.52703 11.5317 8.09072 11.8163 7.5396C12.101 6.98847 12.1872 6.35613 12.0605 5.74892C11.9337 5.14171 11.6018 4.59665 11.1205 4.20539C10.6391 3.81414 10.0377 3.60056 9.41743 3.60056C8.79713 3.60056 8.19575 3.81414 7.71441 4.20539C7.23306 4.59665 6.90112 5.14171 6.77438 5.74892C6.64765 6.35613 6.73386 6.98847 7.01852 7.5396C7.30318 8.09072 7.76892 8.52703 8.33743 8.77515C8.02243 8.91285 7.73893 9.10815 7.50043 9.34845C6.81737 8.9179 6.29833 8.27084 6.02623 7.51065C5.8875 7.12217 5.81686 6.71266 5.81743 6.30015C5.81743 5.34537 6.19672 4.42969 6.87185 3.75456C7.54698 3.07943 8.46265 2.70015 9.41743 2.70015C10.3722 2.70015 11.2879 3.07943 11.963 3.75456C12.6381 4.42969 13.0174 5.34537 13.0174 6.30015Z" fill="#C9CAD8"/>
</g>
<defs>
<clipPath id="clip0_344_7153">
<rect width="18" height="18" fill="white" transform="translate(0.41748 0.000244141)"/>
</clipPath>
</defs>
</svg>
