<svg width="17" height="17" viewBox="0 0 17 17" fill="none" xmlns="http://www.w3.org/2000/svg">
<path d="M8.41748 17.0076C3.96998 17.0076 0.35498 13.3926 0.35498 8.94507C0.35498 7.17507 0.917481 5.49507 1.98248 4.08507C2.16998 3.83757 2.52248 3.79257 2.76998 3.98007C3.01748 4.16757 3.06998 4.52007 2.88248 4.76757C1.96895 5.96829 1.47608 7.43634 1.47998 8.94507C1.47998 12.7701 4.59248 15.8826 8.41748 15.8826C12.2425 15.8826 15.355 12.7701 15.355 8.94507C15.355 5.12007 12.2425 2.00757 8.41748 2.00757C8.10998 2.00757 7.85498 1.75257 7.85498 1.44507C7.85498 1.13757 8.10998 0.882568 8.41748 0.882568C12.865 0.882568 16.48 4.49757 16.48 8.94507C16.48 13.3926 12.865 17.0076 8.41748 17.0076Z" fill="#EEC202"/>
<path d="M8.41748 14.7576C5.21498 14.7576 2.60498 12.1476 2.60498 8.94507C2.60498 8.63757 2.85998 8.38257 3.16748 8.38257C3.47498 8.38257 3.72998 8.63757 3.72998 8.94507C3.72998 11.5326 5.82998 13.6326 8.41748 13.6326C11.005 13.6326 13.105 11.5326 13.105 8.94507C13.105 6.35757 11.005 4.25757 8.41748 4.25757C8.10998 4.25757 7.85498 4.00257 7.85498 3.69507C7.85498 3.38757 8.10998 3.13257 8.41748 3.13257C11.62 3.13257 14.23 5.74257 14.23 8.94507C14.23 12.1476 11.62 14.7576 8.41748 14.7576Z" fill="#EEC202"/>
<path d="M8.41748 12.5076C8.10998 12.5076 7.85498 12.2526 7.85498 11.9451C7.85498 11.6376 8.10998 11.3826 8.41748 11.3826C9.75998 11.3826 10.855 10.2876 10.855 8.94507C10.855 7.60257 9.75998 6.50757 8.41748 6.50757C8.10998 6.50757 7.85498 6.25257 7.85498 5.94507C7.85498 5.63757 8.10998 5.38257 8.41748 5.38257C10.3825 5.38257 11.98 6.98007 11.98 8.94507C11.98 10.9101 10.3825 12.5076 8.41748 12.5076Z" fill="#EEC202"/>
</svg>
