<svg width="24" height="17" viewBox="0 0 24 17" fill="none" xmlns="http://www.w3.org/2000/svg">
<path d="M5.95926 9.74848C5.9618 9.79928 5.95398 9.85007 5.93628 9.89775C5.91858 9.94544 5.89136 9.98902 5.85628 10.0259C5.8212 10.0627 5.779 10.092 5.73223 10.112C5.68547 10.132 5.63512 10.1423 5.58426 10.1422H1.44801C1.27873 10.1425 1.11434 10.0855 0.981577 9.98045C0.848813 9.87543 0.755481 9.72859 0.716758 9.5638C0.692647 9.451 0.693758 9.33427 0.720013 9.22196C0.746269 9.10965 0.797018 9.00452 0.868633 8.91411C1.53033 8.03659 2.40828 7.34566 3.41676 6.9088C2.974 6.50511 2.63442 6.00121 2.42645 5.4393C2.21849 4.87739 2.14819 4.27382 2.22146 3.67916C2.29472 3.08449 2.50941 2.51604 2.84754 2.0214C3.18568 1.52677 3.63741 1.12036 4.16491 0.836216C4.69241 0.552068 5.28032 0.398454 5.87939 0.38824C6.47847 0.378026 7.07127 0.511509 7.60814 0.777509C8.14502 1.04351 8.61035 1.43428 8.96515 1.9171C9.31995 2.39992 9.55389 2.96072 9.64738 3.55255C9.65946 3.63213 9.6452 3.71348 9.60678 3.78422C9.56837 3.85496 9.5079 3.91121 9.43457 3.94442C8.39431 4.42534 7.51332 5.19377 6.89554 6.15906C6.27777 7.12434 5.94899 8.24619 5.94801 9.39223C5.94801 9.51223 5.94801 9.63036 5.95926 9.74848ZM23.0218 8.91317C22.3616 8.03667 21.4856 7.34612 20.4793 6.9088C20.922 6.50511 21.2616 6.00121 21.4696 5.4393C21.6775 4.87739 21.7478 4.27382 21.6746 3.67916C21.6013 3.08449 21.3866 2.51604 21.0485 2.0214C20.7103 1.52677 20.2586 1.12036 19.7311 0.836216C19.2036 0.552068 18.6157 0.398454 18.0166 0.38824C17.4175 0.378026 16.8247 0.511509 16.2879 0.777509C15.751 1.04351 15.2857 1.43428 14.9309 1.9171C14.5761 2.39992 14.3421 2.96072 14.2486 3.55255C14.2366 3.63213 14.2508 3.71348 14.2892 3.78422C14.3276 3.85496 14.3881 3.91121 14.4614 3.94442C15.5017 4.42534 16.3827 5.19377 17.0005 6.15906C17.6182 7.12434 17.947 8.24619 17.948 9.39223C17.948 9.51223 17.948 9.63036 17.9368 9.74848C17.9342 9.79928 17.942 9.85007 17.9597 9.89775C17.9774 9.94544 18.0047 9.98902 18.0397 10.0259C18.0748 10.0627 18.117 10.092 18.1638 10.112C18.2105 10.132 18.2609 10.1423 18.3118 10.1422H22.448C22.6173 10.1425 22.7817 10.0855 22.9144 9.98045C23.0472 9.87543 23.1405 9.72859 23.1793 9.5638C23.2035 9.4508 23.2024 9.33382 23.176 9.22131C23.1495 9.1088 23.0985 9.00355 23.0264 8.91317H23.0218ZM14.678 12.9613C15.4248 12.3894 15.9736 11.5979 16.2472 10.6979C16.5209 9.79803 16.5057 8.83499 16.2038 7.94416C15.9018 7.05333 15.3284 6.27951 14.5639 5.73145C13.7995 5.18339 12.8825 4.88865 11.9419 4.88865C11.0013 4.88865 10.0843 5.18339 9.31991 5.73145C8.55547 6.27951 7.98199 7.05333 7.68005 7.94416C7.37812 8.83499 7.36292 9.79803 7.6366 10.6979C7.91027 11.5979 8.45905 12.3894 9.20582 12.9613C7.8807 13.5354 6.77419 14.5188 6.04832 15.7672C5.98249 15.8813 5.94783 16.0106 5.94784 16.1423C5.94785 16.2739 5.98252 16.4033 6.04836 16.5173C6.11421 16.6313 6.20891 16.726 6.32295 16.7918C6.43699 16.8576 6.56634 16.8923 6.69801 16.8922H17.198C17.3297 16.8923 17.459 16.8576 17.5731 16.7918C17.6871 16.726 17.7818 16.6313 17.8477 16.5173C17.9135 16.4033 17.9482 16.2739 17.9482 16.1423C17.9482 16.0106 17.9135 15.8813 17.8477 15.7672C17.1203 14.5179 16.0117 13.5346 14.6846 12.9613H14.678Z" fill="#FFFFFF"/>
</svg>
