<svg width="51" height="53" viewBox="0 0 51 53" fill="none" xmlns="http://www.w3.org/2000/svg">
<ellipse cx="25.5" cy="26.5" rx="25.5" ry="26" fill="#16194A"/>
<path opacity="0.4" fill-rule="evenodd" clip-rule="evenodd" d="M32.5279 25.043V25.793C32.5279 29.412 29.5989 32.356 25.9989 32.356C22.3999 32.356 19.4719 29.412 19.4719 25.793V25.043H17.9719V25.793C17.9719 29.984 21.1729 33.436 25.2479 33.818V36.627H26.7479V33.818C30.8249 33.437 34.0279 29.985 34.0279 25.793V25.043H32.5279Z" fill="#FFC727"/>
<path fill-rule="evenodd" clip-rule="evenodd" d="M25.71 24.073V25.573H30.19V25.763C30.19 28.083 28.31 29.973 26 29.973C23.68 29.973 21.8 28.083 21.8 25.763V20.593C21.8 18.263 23.68 16.373 26 16.373C28.27 16.373 30.12 18.193 30.18 20.463H26.79V21.963H30.19V24.073H25.71Z" fill="#FFC727"/>
</svg>
