<svg width="234" height="40" viewBox="0 0 234 40" fill="none" xmlns="http://www.w3.org/2000/svg">
<path d="M13.332 30.416C9.96133 30.416 7.16667 29.3067 4.948 27.088C2.72933 24.848 1.62 22.0853 1.62 18.8C1.62 15.5147 2.72933 12.7627 4.948 10.544C7.16667 8.304 9.96133 7.184 13.332 7.184C15.3587 7.184 17.2253 7.664 18.932 8.624C20.66 9.584 22.004 10.8853 22.964 12.528L19.764 14.384C19.1667 13.2747 18.292 12.4 17.14 11.76C16.0093 11.0987 14.74 10.768 13.332 10.768C10.9427 10.768 9.00133 11.5253 7.508 13.04C6.036 14.5547 5.3 16.4747 5.3 18.8C5.3 21.1253 6.036 23.0453 7.508 24.56C9.00133 26.0747 10.9427 26.832 13.332 26.832C14.74 26.832 16.02 26.512 17.172 25.872C18.324 25.2107 19.188 24.3253 19.764 23.216L22.964 25.04C22.0253 26.6827 20.692 27.9947 18.964 28.976C17.2573 29.936 15.38 30.416 13.332 30.416ZM29.4095 16.688C30.2842 14.704 31.9268 13.712 34.3375 13.712V17.456C33.0148 17.3707 31.8628 17.6907 30.8815 18.416C29.9002 19.12 29.4095 20.2933 29.4095 21.936V30H25.9535V14H29.4095V16.688ZM38.861 23.472C39.117 24.688 39.7037 25.6267 40.621 26.288C41.5383 26.928 42.6583 27.248 43.981 27.248C45.8157 27.248 47.1917 26.5867 48.109 25.264L50.957 26.928C49.3783 29.2533 47.0423 30.416 43.949 30.416C41.3463 30.416 39.245 29.6267 37.645 28.048C36.045 26.448 35.245 24.432 35.245 22C35.245 19.6107 36.0343 17.616 37.613 16.016C39.1917 14.3947 41.2183 13.584 43.693 13.584C46.0397 13.584 47.9597 14.4053 49.453 16.048C50.9677 17.6907 51.725 19.6853 51.725 22.032C51.725 22.3947 51.6823 22.8747 51.597 23.472H38.861ZM38.829 20.656H48.237C48.0023 19.3547 47.4583 18.3733 46.605 17.712C45.773 17.0507 44.7917 16.72 43.661 16.72C42.381 16.72 41.3143 17.072 40.461 17.776C39.6077 18.48 39.0637 19.44 38.829 20.656ZM67.3443 14H70.8003V30H67.3443V27.696C66.0429 29.5093 64.1763 30.416 61.7443 30.416C59.5469 30.416 57.6696 29.6053 56.1123 27.984C54.5549 26.3413 53.7763 24.3467 53.7763 22C53.7763 19.632 54.5549 17.6373 56.1123 16.016C57.6696 14.3947 59.5469 13.584 61.7443 13.584C64.1763 13.584 66.0429 14.48 67.3443 16.272V14ZM58.6723 25.68C59.6323 26.64 60.8376 27.12 62.2883 27.12C63.7389 27.12 64.9443 26.64 65.9043 25.68C66.8643 24.6987 67.3443 23.472 67.3443 22C67.3443 20.528 66.8643 19.312 65.9043 18.352C64.9443 17.3707 63.7389 16.88 62.2883 16.88C60.8376 16.88 59.6323 17.3707 58.6723 18.352C57.7123 19.312 57.2323 20.528 57.2323 22C57.2323 23.472 57.7123 24.6987 58.6723 25.68ZM83.7565 17.328H79.7885V25.008C79.7885 25.6693 79.9378 26.1493 80.2365 26.448C80.5352 26.7253 80.9725 26.8853 81.5485 26.928C82.1458 26.9493 82.8818 26.9387 83.7565 26.896V30C81.1112 30.32 79.2125 30.096 78.0605 29.328C76.9085 28.5387 76.3325 27.0987 76.3325 25.008V17.328H73.3885V14H76.3325V10.544L79.7885 9.52V14H83.7565V17.328ZM88.9548 23.472C89.2108 24.688 89.7974 25.6267 90.7148 26.288C91.6321 26.928 92.7521 27.248 94.0748 27.248C95.9094 27.248 97.2854 26.5867 98.2028 25.264L101.051 26.928C99.4721 29.2533 97.1361 30.416 94.0428 30.416C91.4401 30.416 89.3388 29.6267 87.7388 28.048C86.1388 26.448 85.3388 24.432 85.3388 22C85.3388 19.6107 86.1281 17.616 87.7068 16.016C89.2854 14.3947 91.3121 13.584 93.7868 13.584C96.1334 13.584 98.0534 14.4053 99.5468 16.048C101.061 17.6907 101.819 19.6853 101.819 22.032C101.819 22.3947 101.776 22.8747 101.691 23.472H88.9548ZM88.9227 20.656H98.3308C98.0961 19.3547 97.5521 18.3733 96.6988 17.712C95.8668 17.0507 94.8854 16.72 93.7548 16.72C92.4748 16.72 91.4081 17.072 90.5548 17.776C89.7014 18.48 89.1574 19.44 88.9227 20.656ZM127.676 30L126.108 25.488H116.572L115.004 30H111.004L119.132 7.6H123.548L131.644 30H127.676ZM117.788 22.032H124.892L121.34 11.92L117.788 22.032ZM140.974 30.416C138.564 30.416 136.548 29.6053 134.926 27.984C133.326 26.3627 132.526 24.368 132.526 22C132.526 19.6107 133.326 17.616 134.926 16.016C136.548 14.3947 138.564 13.584 140.974 13.584C142.532 13.584 143.95 13.9573 145.23 14.704C146.51 15.4507 147.47 16.4533 148.11 17.712L145.134 19.44C144.772 18.672 144.217 18.0747 143.47 17.648C142.745 17.2 141.902 16.976 140.942 16.976C139.534 16.976 138.35 17.456 137.39 18.416C136.452 19.376 135.982 20.5707 135.982 22C135.982 23.4293 136.452 24.624 137.39 25.584C138.35 26.544 139.534 27.024 140.942 27.024C141.881 27.024 142.724 26.8 143.47 26.352C144.238 25.904 144.814 25.3067 145.198 24.56L148.174 26.256C147.492 27.536 146.51 28.5493 145.23 29.296C143.95 30.0427 142.532 30.416 140.974 30.416ZM157.974 30.416C155.564 30.416 153.548 29.6053 151.926 27.984C150.326 26.3627 149.526 24.368 149.526 22C149.526 19.6107 150.326 17.616 151.926 16.016C153.548 14.3947 155.564 13.584 157.974 13.584C159.532 13.584 160.95 13.9573 162.23 14.704C163.51 15.4507 164.47 16.4533 165.11 17.712L162.134 19.44C161.772 18.672 161.217 18.0747 160.47 17.648C159.745 17.2 158.902 16.976 157.942 16.976C156.534 16.976 155.35 17.456 154.39 18.416C153.452 19.376 152.982 20.5707 152.982 22C152.982 23.4293 153.452 24.624 154.39 25.584C155.35 26.544 156.534 27.024 157.942 27.024C158.881 27.024 159.724 26.8 160.47 26.352C161.238 25.904 161.814 25.3067 162.198 24.56L165.174 26.256C164.492 27.536 163.51 28.5493 162.23 29.296C160.95 30.0427 159.532 30.416 157.974 30.416ZM174.974 30.416C172.628 30.416 170.633 29.6053 168.99 27.984C167.348 26.3627 166.526 24.368 166.526 22C166.526 19.632 167.348 17.6373 168.99 16.016C170.633 14.3947 172.628 13.584 174.974 13.584C177.342 13.584 179.337 14.3947 180.958 16.016C182.601 17.6373 183.422 19.632 183.422 22C183.422 24.368 182.601 26.3627 180.958 27.984C179.337 29.6053 177.342 30.416 174.974 30.416ZM171.422 25.616C172.382 26.576 173.566 27.056 174.974 27.056C176.382 27.056 177.566 26.576 178.526 25.616C179.486 24.656 179.966 23.4507 179.966 22C179.966 20.5493 179.486 19.344 178.526 18.384C177.566 17.424 176.382 16.944 174.974 16.944C173.566 16.944 172.382 17.424 171.422 18.384C170.462 19.344 169.982 20.5493 169.982 22C169.982 23.4507 170.462 24.656 171.422 25.616ZM197.331 14H200.787V30H197.331V27.952C196.286 29.5947 194.633 30.416 192.371 30.416C190.537 30.416 189.054 29.8293 187.923 28.656C186.793 27.4827 186.227 25.872 186.227 23.824V14H189.683V23.472C189.683 24.6667 190.003 25.584 190.643 26.224C191.283 26.864 192.158 27.184 193.267 27.184C194.483 27.184 195.465 26.8107 196.211 26.064C196.958 25.296 197.331 24.1333 197.331 22.576V14ZM213.245 13.584C215.079 13.584 216.562 14.1707 217.693 15.344C218.823 16.5173 219.389 18.128 219.389 20.176V30H215.933V20.528C215.933 19.3333 215.613 18.416 214.973 17.776C214.333 17.136 213.458 16.816 212.349 16.816C211.133 16.816 210.151 17.2 209.405 17.968C208.658 18.7147 208.285 19.8667 208.285 21.424V30H204.829V14H208.285V16.048C209.33 14.4053 210.983 13.584 213.245 13.584ZM232.038 17.328H228.07V25.008C228.07 25.6693 228.219 26.1493 228.518 26.448C228.816 26.7253 229.254 26.8853 229.83 26.928C230.427 26.9493 231.163 26.9387 232.038 26.896V30C229.392 30.32 227.494 30.096 226.342 29.328C225.19 28.5387 224.614 27.0987 224.614 25.008V17.328H221.67V14H224.614V10.544L228.07 9.52V14H232.038V17.328Z" fill="#16194A"/>
<path d="M114.5 38H0.5" stroke="#EEC202" stroke-width="3"/>
</svg>
