<svg width="250" height="43" viewBox="0 0 250 43" fill="none" xmlns="http://www.w3.org/2000/svg">
<path d="M15.36 11.62H5.92V17.892H15.04V21.412H5.92V30.5H2.24V8.1H15.36V11.62ZM26.1305 30.916C23.7838 30.916 21.7892 30.1053 20.1465 28.484C18.5038 26.8627 17.6825 24.868 17.6825 22.5C17.6825 20.132 18.5038 18.1373 20.1465 16.516C21.7892 14.8947 23.7838 14.084 26.1305 14.084C28.4985 14.084 30.4932 14.8947 32.1145 16.516C33.7572 18.1373 34.5785 20.132 34.5785 22.5C34.5785 24.868 33.7572 26.8627 32.1145 28.484C30.4932 30.1053 28.4985 30.916 26.1305 30.916ZM22.5785 26.116C23.5385 27.076 24.7225 27.556 26.1305 27.556C27.5385 27.556 28.7225 27.076 29.6825 26.116C30.6425 25.156 31.1225 23.9507 31.1225 22.5C31.1225 21.0493 30.6425 19.844 29.6825 18.884C28.7225 17.924 27.5385 17.444 26.1305 17.444C24.7225 17.444 23.5385 17.924 22.5785 18.884C21.6185 19.844 21.1385 21.0493 21.1385 22.5C21.1385 23.9507 21.6185 25.156 22.5785 26.116ZM41.1595 17.188C42.0342 15.204 43.6768 14.212 46.0875 14.212V17.956C44.7648 17.8707 43.6128 18.1907 42.6315 18.916C41.6502 19.62 41.1595 20.7933 41.1595 22.436V30.5H37.7035V14.5H41.1595V17.188ZM60.627 14.5H64.019V29.764C64.019 32.196 63.219 34.0627 61.619 35.364C60.019 36.6653 58.0777 37.316 55.795 37.316C52.1043 37.316 49.5763 36.0253 48.211 33.444L51.187 31.716C52.019 33.3587 53.5763 34.18 55.859 34.18C57.3523 34.18 58.515 33.7853 59.347 32.996C60.2003 32.228 60.627 31.1507 60.627 29.764V27.812C59.3257 29.668 57.4697 30.596 55.059 30.596C52.7977 30.596 50.8883 29.796 49.331 28.196C47.7737 26.5747 46.995 24.6227 46.995 22.34C46.995 20.0573 47.7737 18.116 49.331 16.516C50.8883 14.8947 52.7977 14.084 55.059 14.084C57.4697 14.084 59.3257 15.012 60.627 16.868V14.5ZM51.891 25.924C52.8723 26.884 54.0883 27.364 55.539 27.364C56.9897 27.364 58.195 26.884 59.155 25.924C60.1363 24.964 60.627 23.7693 60.627 22.34C60.627 20.9107 60.1363 19.716 59.155 18.756C58.195 17.796 56.9897 17.316 55.539 17.316C54.0883 17.316 52.8723 17.796 51.891 18.756C50.931 19.716 50.451 20.9107 50.451 22.34C50.451 23.7693 50.931 24.964 51.891 25.924ZM75.5993 30.916C73.2526 30.916 71.2579 30.1053 69.6153 28.484C67.9726 26.8627 67.1513 24.868 67.1513 22.5C67.1513 20.132 67.9726 18.1373 69.6153 16.516C71.2579 14.8947 73.2526 14.084 75.5993 14.084C77.9673 14.084 79.9619 14.8947 81.5833 16.516C83.2259 18.1373 84.0473 20.132 84.0473 22.5C84.0473 24.868 83.2259 26.8627 81.5833 28.484C79.9619 30.1053 77.9673 30.916 75.5993 30.916ZM72.0473 26.116C73.0073 27.076 74.1913 27.556 75.5993 27.556C77.0073 27.556 78.1913 27.076 79.1513 26.116C80.1113 25.156 80.5913 23.9507 80.5913 22.5C80.5913 21.0493 80.1113 19.844 79.1513 18.884C78.1913 17.924 77.0073 17.444 75.5993 17.444C74.1913 17.444 73.0073 17.924 72.0473 18.884C71.0873 19.844 70.6073 21.0493 70.6073 22.5C70.6073 23.9507 71.0873 25.156 72.0473 26.116ZM95.7878 17.828H91.8198V25.508C91.8198 26.1693 91.9691 26.6493 92.2678 26.948C92.5664 27.2253 93.0038 27.3853 93.5798 27.428C94.1771 27.4493 94.9131 27.4387 95.7878 27.396V30.5C93.1424 30.82 91.2438 30.596 90.0918 29.828C88.9398 29.0387 88.3638 27.5987 88.3638 25.508V17.828H85.4198V14.5H88.3638V11.044L91.8198 10.02V14.5H95.7878V17.828Z" fill="#16194A"/>
<path d="M60 41.5H0" stroke="#EEC202" stroke-width="3"/>
<path d="M119.072 15.584C121.269 15.584 123.147 16.4053 124.704 18.048C126.261 19.6693 127.04 21.6533 127.04 24C127.04 26.368 126.261 28.3627 124.704 29.984C123.147 31.6053 121.269 32.416 119.072 32.416C116.64 32.416 114.773 31.52 113.472 29.728V38.4H110.016V16H113.472V18.304C114.773 16.4907 116.64 15.584 119.072 15.584ZM114.912 27.68C115.872 28.64 117.077 29.12 118.528 29.12C119.979 29.12 121.184 28.64 122.144 27.68C123.104 26.6987 123.584 25.472 123.584 24C123.584 22.528 123.104 21.312 122.144 20.352C121.184 19.3707 119.979 18.88 118.528 18.88C117.077 18.88 115.872 19.3707 114.912 20.352C113.952 21.312 113.472 22.528 113.472 24C113.472 25.472 113.952 26.6987 114.912 27.68ZM142.844 16H146.3V32H142.844V29.696C141.543 31.5093 139.676 32.416 137.244 32.416C135.047 32.416 133.17 31.6053 131.612 29.984C130.055 28.3413 129.276 26.3467 129.276 24C129.276 21.632 130.055 19.6373 131.612 18.016C133.17 16.3947 135.047 15.584 137.244 15.584C139.676 15.584 141.543 16.48 142.844 18.272V16ZM134.172 27.68C135.132 28.64 136.338 29.12 137.788 29.12C139.239 29.12 140.444 28.64 141.404 27.68C142.364 26.6987 142.844 25.472 142.844 24C142.844 22.528 142.364 21.312 141.404 20.352C140.444 19.3707 139.239 18.88 137.788 18.88C136.338 18.88 135.132 19.3707 134.172 20.352C133.212 21.312 132.732 22.528 132.732 24C132.732 25.472 133.212 26.6987 134.172 27.68ZM153.339 20.416C153.339 20.9493 153.627 21.376 154.203 21.696C154.8 21.9947 155.515 22.2613 156.347 22.496C157.2 22.7093 158.053 22.9653 158.907 23.264C159.76 23.5627 160.475 24.0747 161.051 24.8C161.648 25.504 161.947 26.4 161.947 27.488C161.947 29.024 161.349 30.2293 160.155 31.104C158.981 31.9787 157.499 32.416 155.707 32.416C154.128 32.416 152.773 32.0853 151.643 31.424C150.512 30.7627 149.691 29.8453 149.179 28.672L152.155 26.944C152.709 28.48 153.893 29.248 155.707 29.248C157.52 29.248 158.427 28.6507 158.427 27.456C158.427 26.944 158.128 26.528 157.531 26.208C156.955 25.888 156.24 25.6213 155.387 25.408C154.555 25.1733 153.712 24.9067 152.859 24.608C152.005 24.3093 151.28 23.8187 150.683 23.136C150.107 22.432 149.819 21.5467 149.819 20.48C149.819 19.008 150.373 17.824 151.483 16.928C152.613 16.032 154.011 15.584 155.675 15.584C156.997 15.584 158.171 15.8827 159.195 16.48C160.24 17.056 161.04 17.8667 161.595 18.912L158.683 20.544C158.128 19.328 157.125 18.72 155.675 18.72C155.013 18.72 154.459 18.8693 154.011 19.168C153.563 19.4453 153.339 19.8613 153.339 20.416ZM167.12 20.416C167.12 20.9493 167.408 21.376 167.984 21.696C168.581 21.9947 169.296 22.2613 170.128 22.496C170.981 22.7093 171.835 22.9653 172.688 23.264C173.541 23.5627 174.256 24.0747 174.832 24.8C175.429 25.504 175.728 26.4 175.728 27.488C175.728 29.024 175.131 30.2293 173.936 31.104C172.763 31.9787 171.28 32.416 169.488 32.416C167.909 32.416 166.555 32.0853 165.424 31.424C164.293 30.7627 163.472 29.8453 162.96 28.672L165.936 26.944C166.491 28.48 167.675 29.248 169.488 29.248C171.301 29.248 172.208 28.6507 172.208 27.456C172.208 26.944 171.909 26.528 171.312 26.208C170.736 25.888 170.021 25.6213 169.168 25.408C168.336 25.1733 167.493 24.9067 166.64 24.608C165.787 24.3093 165.061 23.8187 164.464 23.136C163.888 22.432 163.6 21.5467 163.6 20.48C163.6 19.008 164.155 17.824 165.264 16.928C166.395 16.032 167.792 15.584 169.456 15.584C170.779 15.584 171.952 15.8827 172.976 16.48C174.021 17.056 174.821 17.8667 175.376 18.912L172.464 20.544C171.909 19.328 170.907 18.72 169.456 18.72C168.795 18.72 168.24 18.8693 167.792 19.168C167.344 19.4453 167.12 19.8613 167.12 20.416ZM196.573 16H200.221L195.197 32H191.805L188.477 21.216L185.117 32H181.725L176.701 16H180.349L183.453 27.04L186.813 16H190.109L193.437 27.04L196.573 16ZM209.693 32.416C207.346 32.416 205.352 31.6053 203.709 29.984C202.066 28.3627 201.245 26.368 201.245 24C201.245 21.632 202.066 19.6373 203.709 18.016C205.352 16.3947 207.346 15.584 209.693 15.584C212.061 15.584 214.056 16.3947 215.677 18.016C217.32 19.6373 218.141 21.632 218.141 24C218.141 26.368 217.32 28.3627 215.677 29.984C214.056 31.6053 212.061 32.416 209.693 32.416ZM206.141 27.616C207.101 28.576 208.285 29.056 209.693 29.056C211.101 29.056 212.285 28.576 213.245 27.616C214.205 26.656 214.685 25.4507 214.685 24C214.685 22.5493 214.205 21.344 213.245 20.384C212.285 19.424 211.101 18.944 209.693 18.944C208.285 18.944 207.101 19.424 206.141 20.384C205.181 21.344 204.701 22.5493 204.701 24C204.701 25.4507 205.181 26.656 206.141 27.616ZM224.722 18.688C225.597 16.704 227.239 15.712 229.65 15.712V19.456C228.327 19.3707 227.175 19.6907 226.194 20.416C225.213 21.12 224.722 22.2933 224.722 23.936V32H221.266V16H224.722V18.688ZM244.126 9.6H247.582V32H244.126V29.696C242.824 31.5093 240.958 32.416 238.526 32.416C236.328 32.416 234.451 31.6053 232.894 29.984C231.336 28.3413 230.558 26.3467 230.558 24C230.558 21.632 231.336 19.6373 232.894 18.016C234.451 16.3947 236.328 15.584 238.526 15.584C240.958 15.584 242.824 16.48 244.126 18.272V9.6ZM235.454 27.68C236.414 28.64 237.619 29.12 239.07 29.12C240.52 29.12 241.726 28.64 242.686 27.68C243.646 26.6987 244.126 25.472 244.126 24C244.126 22.528 243.646 21.312 242.686 20.352C241.726 19.3707 240.52 18.88 239.07 18.88C237.619 18.88 236.414 19.3707 235.454 20.352C234.494 21.312 234.014 22.528 234.014 24C234.014 25.472 234.494 26.6987 235.454 27.68Z" fill="#16194A"/>
</svg>
