<svg width="234" height="178" viewBox="0 0 234 178" fill="none" xmlns="http://www.w3.org/2000/svg">
<path d="M233.74 156.817H0.259521V156.934H233.74V156.817Z" fill="#EBEBEB"/>
<path d="M40.2221 161.263H24.7563V161.379H40.2221V161.263Z" fill="#EBEBEB"/>
<path d="M102.006 159.997H80.1753V160.114H102.006V159.997Z" fill="#EBEBEB"/>
<path d="M61.8939 164.872H52.9329V164.989H61.8939V164.872Z" fill="#EBEBEB"/>
<path d="M160.213 162.846H146.106V162.962H160.213V162.846Z" fill="#EBEBEB"/>
<path d="M173.39 162.846H164.369V162.962H173.39V162.846Z" fill="#EBEBEB"/>
<path d="M210.35 164.816H183.005V164.933H210.35V164.816Z" fill="#EBEBEB"/>
<path d="M110.929 135.991H20.7637C20.0574 135.989 19.3804 135.708 18.8814 135.208C18.3823 134.708 18.102 134.031 18.1021 133.324V6.57684C18.1082 5.87454 18.3912 5.20303 18.8896 4.70816C19.3879 4.21329 20.0614 3.93504 20.7637 3.93384H110.929C111.637 3.93384 112.315 4.21476 112.815 4.71479C113.315 5.21483 113.596 5.89303 113.596 6.60019V133.324C113.596 134.031 113.315 134.71 112.815 135.21C112.315 135.71 111.637 135.991 110.929 135.991ZM20.7637 4.02723C20.0883 4.02847 19.441 4.29763 18.9639 4.77564C18.4868 5.25365 18.2188 5.90145 18.2188 6.57684V133.324C18.2188 134 18.4868 134.647 18.9639 135.125C19.441 135.603 20.0883 135.873 20.7637 135.874H110.929C111.605 135.873 112.253 135.604 112.731 135.126C113.209 134.648 113.478 134 113.479 133.324V6.57684C113.478 5.90102 113.209 5.25323 112.731 4.77536C112.253 4.29748 111.605 4.02846 110.929 4.02723H20.7637Z" fill="#EBEBEB"/>
<path d="M211.938 135.991H121.768C121.061 135.989 120.383 135.708 119.884 135.208C119.384 134.709 119.103 134.031 119.101 133.324V6.57684C119.109 5.87412 119.393 5.20261 119.892 4.70787C120.391 4.21313 121.065 3.93503 121.768 3.93384H211.938C212.64 3.93627 213.312 4.21507 213.809 4.7098C214.307 5.20454 214.589 5.87535 214.595 6.57684V133.324C214.595 134.03 214.315 134.707 213.817 135.206C213.319 135.706 212.644 135.988 211.938 135.991ZM121.768 4.02723C121.092 4.02846 120.444 4.29748 119.966 4.77536C119.488 5.25323 119.219 5.90102 119.218 6.57684V133.324C119.219 134 119.488 134.648 119.966 135.126C120.444 135.604 121.092 135.873 121.768 135.874H211.938C212.614 135.873 213.262 135.604 213.739 135.126C214.217 134.648 214.486 134 214.488 133.324V6.57684C214.486 5.90102 214.217 5.25323 213.739 4.77536C213.262 4.29748 212.614 4.02846 211.938 4.02723H121.768Z" fill="#EBEBEB"/>
<path d="M199.026 15.4631H163.388V149.472H199.026V15.4631Z" fill="white"/>
<path d="M201.202 15.4631H165.564V149.472H201.202V15.4631Z" fill="white"/>
<path d="M197.294 145.909V19.0261H169.472V145.909H197.294Z" fill="white"/>
<path d="M197.294 145.909V19.0261H195.65V145.909H197.294Z" fill="white"/>
<path d="M199.587 124.527H167.18V129.308H199.587V124.527Z" fill="white"/>
<path d="M199.587 25.3067H167.18V30.0884H199.587V25.3067Z" fill="white"/>
<path d="M65.6341 15.4631H29.9956V149.472H65.6341V15.4631Z" fill="white"/>
<path d="M67.8102 15.4631H32.1716V149.472H67.8102V15.4631Z" fill="white"/>
<path d="M63.9019 145.909L63.9019 19.0261H36.0803L36.0803 145.909H63.9019Z" fill="white"/>
<path d="M63.9019 145.909L63.9019 19.0261H62.2581L62.2581 145.909H63.9019Z" fill="white"/>
<path d="M66.1945 124.527H33.7874V129.308H66.1945V124.527Z" fill="white"/>
<path d="M66.1945 25.3067H33.7874V30.0884H66.1945V25.3067Z" fill="white"/>
<path d="M82.2674 93.4598L153.423 93.4598V25.7503L82.2674 25.7503L82.2674 93.4598Z" fill="white"/>
<path d="M82.2673 25.7549H80.5769V93.4644H82.2673V25.7549Z" fill="white"/>
<path d="M150.626 90.6627V28.5568L85.0739 28.5568V90.6627H150.626Z" fill="white"/>
<path d="M85.0691 59.3762C106.685 56.8826 128.305 61.8651 149.921 59.3762V58.1294C128.305 60.6183 106.685 55.6405 85.0691 58.1294V59.3762Z" fill="white"/>
<path d="M150.621 90.6627V28.5568H149.921V90.6627H150.621Z" fill="white"/>
<path d="M64.5836 143.009C64.3563 143.004 64.135 142.936 63.9444 142.812C63.7538 142.688 63.6014 142.513 63.5044 142.308C63.4075 142.102 63.3697 141.874 63.3953 141.648C63.421 141.422 63.5091 141.208 63.6497 141.029C64.3408 140.156 62.6597 138.134 60.8806 135.991C57.0889 131.433 51.3592 124.541 59.1855 116.635C64.1213 111.648 64.0139 109.584 63.7384 108.925C63.2481 107.758 60.9366 107.497 60.1895 107.525C59.8787 107.505 59.5869 107.368 59.3736 107.141C59.1603 106.915 59.0416 106.615 59.0416 106.304C59.0416 105.992 59.1603 105.692 59.3736 105.466C59.5869 105.239 59.8787 105.102 60.1895 105.082C60.6564 105.082 64.7937 105.115 66.0078 107.982C67.0585 110.462 65.4008 113.861 60.9413 118.363C54.6747 124.69 58.9847 129.869 62.7811 134.44C65.214 137.368 67.5114 140.128 65.5829 142.556C65.4636 142.705 65.3109 142.823 65.1373 142.902C64.9637 142.981 64.774 143.017 64.5836 143.009Z" fill="white"/>
<path d="M46.9136 132.003H72.9654L67.1984 156.817H52.6852L46.9136 132.003Z" fill="white"/>
<path d="M46.643 133.114H73.2598C73.5542 133.113 73.8361 132.995 74.0443 132.787C74.2524 132.579 74.3699 132.297 74.3711 132.003C74.3699 131.709 74.2523 131.427 74.044 131.22C73.8357 131.013 73.5537 130.896 73.2598 130.896H46.643C46.3531 130.902 46.077 131.021 45.8738 131.228C45.6705 131.435 45.5561 131.713 45.5549 132.003C45.5549 132.294 45.6687 132.573 45.8721 132.781C46.0755 132.988 46.3523 133.108 46.643 133.114Z" fill="#EBEBEB"/>
<path d="M69.0943 105.872L44.4807 114.001C44.4807 114.001 35.5617 107.978 42.0385 105.269C38.9612 100.016 38.569 89.7661 48.4826 86.7962C58.3962 83.8263 57.6957 98.3021 57.6957 98.3021C57.6957 98.3021 69.9208 85.372 69.3698 100.73C71.7046 100.091 81.5715 102.43 69.0943 105.872Z" fill="white"/>
<path d="M48.5527 116.999H78.4009C78.4009 116.999 86.2739 111.442 78.0274 111.723C79.6664 104.634 75.0528 96.8686 64.6349 96.5697C54.217 96.2709 57.8826 107.828 57.8826 107.828C57.8826 107.828 40.3856 103.658 45.6809 112.269C37.0094 112.694 41.4923 114.917 48.5527 116.999Z" fill="white"/>
<path d="M72.3865 118.606L48.9357 119.451C48.3236 119.458 47.7197 119.31 47.1807 119.02C46.6416 118.73 46.185 118.308 45.8537 117.793C44.9665 116.537 44.733 114.991 48.4827 114.524C47.2826 110.817 49.935 104.359 59.6291 103.859C69.3232 103.359 64.4621 112.32 64.4621 112.32C64.4621 112.32 79.1294 105.918 74.1236 115.44C76.3743 115.346 84.4948 118.171 72.3865 118.606Z" fill="white"/>
<path d="M117 177.905C167.003 177.905 207.539 175.539 207.539 172.619C207.539 169.7 167.003 167.333 117 167.333C66.9965 167.333 26.4607 169.7 26.4607 172.619C26.4607 175.539 66.9965 177.905 117 177.905Z" fill="white"/>
<path d="M104.392 87.3473H176.86C178.879 87.3782 180.814 88.1611 182.286 89.5428C183.758 90.9245 184.662 92.8058 184.821 94.8187L187.67 139.339C187.741 140.299 187.612 141.263 187.292 142.171C186.971 143.078 186.465 143.909 185.807 144.611C185.149 145.314 184.352 145.872 183.467 146.25C182.582 146.629 181.628 146.819 180.665 146.81H108.174C106.16 146.772 104.231 145.987 102.764 144.606C101.297 143.225 100.396 141.347 100.236 139.339L97.3875 94.828C97.3143 93.8672 97.4417 92.9017 97.7614 91.9927C98.0812 91.0837 98.5864 90.2511 99.245 89.5477C99.9036 88.8443 100.701 88.2854 101.587 87.9067C102.473 87.5279 103.428 87.3374 104.392 87.3473Z" fill="#16194A"/>
<path opacity="0.3" d="M104.392 87.3473H176.86C178.879 87.3782 180.814 88.1611 182.286 89.5428C183.758 90.9245 184.662 92.8058 184.821 94.8187L187.67 139.339C187.741 140.299 187.612 141.263 187.292 142.171C186.971 143.078 186.465 143.909 185.807 144.611C185.149 145.314 184.352 145.872 183.467 146.25C182.582 146.629 181.628 146.819 180.665 146.81H108.174C106.16 146.772 104.231 145.987 102.764 144.606C101.297 143.225 100.396 141.347 100.236 139.339L97.3875 94.828C97.3143 93.8672 97.4417 92.9017 97.7614 91.9927C98.0812 91.0837 98.5864 90.2511 99.245 89.5477C99.9036 88.8443 100.701 88.2854 101.587 87.9067C102.473 87.5279 103.428 87.3374 104.392 87.3473Z" fill="white"/>
<path d="M108.179 146.824H180.661C182.44 146.84 184.157 146.171 185.456 144.956L142.113 110.775L103.131 144.956C104.54 146.155 106.329 146.817 108.179 146.824Z" fill="#16194A"/>
<path opacity="0.5" d="M108.179 146.824H180.661C182.44 146.84 184.157 146.171 185.456 144.956L142.113 110.775L103.131 144.956C104.54 146.155 106.329 146.817 108.179 146.824Z" fill="white"/>
<path d="M142.804 121.608L180.708 88.3746C179.537 87.6992 178.211 87.3418 176.86 87.3379H104.392C103.074 87.3289 101.781 87.6879 100.656 88.3746L142.804 121.608Z" fill="#16194A"/>
<path d="M168.879 87.52L166.353 47.9684C166.274 46.8849 165.791 45.8707 165 45.1263C164.208 44.3818 163.167 43.9613 162.081 43.9478H105.578C106.665 43.9623 107.706 44.383 108.498 45.1271C109.29 45.8713 109.774 46.8849 109.855 47.9684L112.363 87.1931" fill="white"/>
<path d="M168.879 88.0944C168.73 88.0947 168.585 88.0379 168.476 87.9355C168.367 87.8331 168.301 87.6929 168.291 87.5434L165.765 47.9917C165.697 47.0574 165.281 46.1827 164.598 45.541C163.916 44.8992 163.017 44.5373 162.08 44.5269H108.716C109.215 44.9484 109.624 45.4655 109.92 46.0477C110.216 46.63 110.393 47.2655 110.439 47.917L112.947 87.1418C112.957 87.2222 112.95 87.3037 112.928 87.3815C112.905 87.4593 112.867 87.5316 112.815 87.5941C112.764 87.6565 112.7 87.7076 112.628 87.7444C112.556 87.7812 112.477 87.8028 112.396 87.8079C112.315 87.8131 112.234 87.8016 112.158 87.7742C112.082 87.7467 112.012 87.704 111.953 87.6486C111.894 87.5932 111.846 87.5263 111.814 87.452C111.782 87.3776 111.765 87.2975 111.765 87.2165L109.262 47.9917C109.194 47.0566 108.777 46.1813 108.094 45.5394C107.411 44.8976 106.511 44.5361 105.573 44.5269C105.426 44.5137 105.288 44.4458 105.188 44.3365C105.088 44.2272 105.033 44.0843 105.033 43.9362C105.033 43.788 105.088 43.6452 105.188 43.5358C105.288 43.4265 105.426 43.3586 105.573 43.3455H162.076C163.315 43.356 164.506 43.8317 165.411 44.6783C166.317 45.525 166.871 46.6809 166.965 47.917L169.496 87.4687C169.505 87.6253 169.451 87.779 169.347 87.8963C169.243 88.0135 169.097 88.0848 168.94 88.0944H168.879Z" fill="#16194A"/>
<path d="M105.573 43.9338C105.056 43.9284 104.542 44.0307 104.066 44.2343C103.59 44.4379 103.161 44.7382 102.807 45.1163C102.453 45.4944 102.182 45.9419 102.01 46.4305C101.838 46.919 101.77 47.438 101.81 47.9543H109.851C109.769 46.8709 109.285 45.8573 108.493 45.1131C107.701 44.369 106.66 43.9482 105.573 43.9338Z" fill="#16194A"/>
<path d="M109.851 48.5474H101.81C101.659 48.5476 101.514 48.4902 101.405 48.3868C101.295 48.2834 101.23 48.142 101.221 47.9917C101.175 47.3947 101.254 46.7946 101.452 46.2297C101.651 45.6647 101.965 45.1473 102.374 44.7102C102.784 44.2732 103.279 43.9262 103.83 43.6912C104.381 43.4562 104.975 43.3385 105.573 43.3454C106.813 43.357 108.003 43.8331 108.908 44.6796C109.813 45.526 110.368 46.6813 110.462 47.917C110.467 47.9978 110.456 48.0788 110.428 48.155C110.401 48.2312 110.359 48.3011 110.304 48.3606C110.245 48.4215 110.175 48.4696 110.097 48.5017C110.019 48.5339 109.935 48.5494 109.851 48.5474ZM102.407 47.3613H109.164C108.965 46.5568 108.505 45.8413 107.855 45.3273C107.205 44.8133 106.402 44.5301 105.573 44.5222C104.784 44.5072 104.019 44.7918 103.432 45.3186C102.844 45.8455 102.478 46.5754 102.407 47.3613Z" fill="#16194A"/>
<path d="M162.081 43.9338H105.578C106.665 43.9483 107.706 44.369 108.498 45.1131C109.29 45.8573 109.774 46.8709 109.855 47.9544L113.064 98.1574L142.804 121.608L169.58 98.4656L166.353 47.945C166.272 46.8633 165.788 45.8514 164.997 45.1088C164.206 44.3663 163.165 43.9471 162.081 43.9338Z" fill="white"/>
<path opacity="0.3" d="M113.059 98.1574L142.8 121.618L169.58 98.4749L140.68 117.56L113.059 98.1574Z" fill="#16194A"/>
<path opacity="0.3" d="M163.453 75.7059H116.295L116.057 72.0309H163.22L163.453 75.7059Z" fill="#16194A"/>
<path opacity="0.3" d="M153.741 87.0951H117.019L116.785 83.4201H153.507L153.741 87.0951Z" fill="#16194A"/>
<path opacity="0.3" d="M164.91 98.4843H137.191L136.958 94.8046H164.677L164.91 98.4843Z" fill="#16194A"/>
<path opacity="0.3" d="M117.747 98.4843H132.587L132.349 94.8046H117.514L117.747 98.4843Z" fill="#16194A"/>
<g opacity="0.5">
<path d="M115.622 58.6338L115.422 55.5145H117.033C117.264 55.5068 117.495 55.5335 117.719 55.5939C117.879 55.6432 118.019 55.7411 118.121 55.874C118.227 56.0231 118.287 56.2001 118.293 56.383C118.312 56.5302 118.288 56.6795 118.223 56.813C118.158 56.9464 118.056 57.0582 117.929 57.1348C117.826 57.195 117.714 57.2376 117.598 57.2609C117.688 57.2858 117.775 57.3235 117.855 57.373C117.978 57.4749 118.083 57.5964 118.167 57.7326L118.695 58.6338H117.602L117.028 57.6999C116.979 57.6098 116.914 57.5292 116.837 57.4617C116.765 57.4121 116.68 57.3859 116.594 57.387H116.533L116.617 58.6525L115.622 58.6338ZM116.472 56.7659H116.879C116.964 56.76 117.048 56.7459 117.131 56.7239C117.193 56.7121 117.248 56.677 117.285 56.6258C117.32 56.5719 117.336 56.5079 117.332 56.4437C117.331 56.399 117.321 56.3548 117.302 56.3144C117.282 56.2741 117.254 56.2385 117.219 56.2103C117.109 56.1468 116.982 56.1191 116.855 56.1309H116.43L116.472 56.7659Z" fill="#16194A"/>
<path d="M118.798 55.5145H121.385L121.427 56.1822H119.802L119.83 56.6772H121.333L121.371 57.3123H119.872L119.909 57.9287H121.576L121.623 58.6338H118.989L118.798 55.5145Z" fill="#16194A"/>
<path d="M124.144 57.359L125.008 57.6158C124.975 57.8281 124.895 58.0305 124.775 58.2088C124.669 58.3669 124.52 58.4915 124.345 58.5684C124.129 58.6561 123.897 58.6975 123.664 58.6898C123.376 58.699 123.09 58.6481 122.823 58.5404C122.581 58.4262 122.376 58.2466 122.23 58.0221C122.053 57.7415 121.951 57.4197 121.936 57.0881C121.906 56.8772 121.92 56.6623 121.978 56.4573C122.036 56.2523 122.136 56.0616 122.272 55.8974C122.421 55.7508 122.6 55.6379 122.797 55.5663C122.993 55.4946 123.203 55.4658 123.411 55.4818C123.739 55.4672 124.064 55.5501 124.345 55.7199C124.598 55.903 124.788 56.1588 124.892 56.4531L124.056 56.6398C124.029 56.567 123.993 56.4979 123.948 56.4344C123.891 56.3631 123.819 56.3043 123.738 56.2616C123.655 56.2219 123.564 56.2011 123.472 56.2009C123.378 56.1994 123.284 56.2232 123.202 56.2701C123.12 56.3169 123.052 56.3849 123.005 56.4671C122.915 56.6574 122.882 56.8701 122.912 57.0788C122.904 57.3325 122.976 57.5822 123.117 57.7932C123.175 57.8586 123.248 57.9098 123.329 57.943C123.409 57.9762 123.497 57.9904 123.584 57.9847C123.66 57.991 123.736 57.9804 123.807 57.9537C123.878 57.9271 123.942 57.885 123.995 57.8306C124.086 57.6897 124.138 57.5268 124.144 57.359Z" fill="#16194A"/>
<path d="M125.321 57.0788C125.293 56.8669 125.309 56.6513 125.369 56.4461C125.43 56.241 125.533 56.0508 125.671 55.8881C125.823 55.7394 126.005 55.6246 126.205 55.5514C126.405 55.4781 126.617 55.4481 126.83 55.4631C127.277 55.439 127.717 55.5878 128.058 55.8787C128.369 56.1901 128.547 56.6106 128.553 57.0508C128.585 57.3555 128.541 57.6634 128.427 57.9474C128.321 58.1774 128.147 58.3686 127.927 58.4937C127.664 58.6337 127.37 58.7014 127.072 58.6898C126.769 58.6991 126.468 58.6417 126.19 58.5217C125.944 58.404 125.737 58.2195 125.592 57.9894C125.425 57.7143 125.332 57.4006 125.321 57.0788ZM126.283 57.0788C126.28 57.3224 126.358 57.5602 126.503 57.7559C126.562 57.821 126.634 57.873 126.714 57.9084C126.795 57.9438 126.882 57.9619 126.97 57.9614C127.058 57.9671 127.146 57.9519 127.227 57.917C127.308 57.8821 127.38 57.8285 127.437 57.7606C127.557 57.5398 127.6 57.2848 127.558 57.0368C127.562 56.8029 127.485 56.5749 127.339 56.3924C127.276 56.3246 127.199 56.2712 127.113 56.2358C127.028 56.2003 126.936 56.1836 126.844 56.1869C126.755 56.181 126.666 56.1966 126.585 56.2324C126.504 56.2681 126.432 56.323 126.377 56.3924C126.267 56.6051 126.234 56.8493 126.283 57.0835V57.0788Z" fill="#16194A"/>
<path d="M128.964 55.5145H130.229L130.841 57.415L131.205 55.5145H132.475L132.671 58.6338H131.882L131.733 56.2569L131.266 58.6338H130.542L129.781 56.2569L129.935 58.6338H129.146L128.964 55.5145Z" fill="#16194A"/>
<path d="M133.077 55.5145H134.348L134.955 57.415L135.319 55.5145H136.612L136.813 58.6338H136.019L135.87 56.2569L135.403 58.6338H134.688L133.927 56.2569L134.081 58.6338H133.292L133.077 55.5145Z" fill="#16194A"/>
<path d="M137.201 55.5145H139.788L139.83 56.1822H138.209L138.242 56.6772H139.741L139.783 57.3123H138.284L138.321 57.9287H139.988L140.03 58.6338H137.401L137.201 55.5145Z" fill="#16194A"/>
<path d="M140.348 55.5145H141.282L142.566 57.2422L142.459 55.5145H143.365L143.566 58.6338H142.655L141.38 56.9247L141.488 58.6338H140.582L140.348 55.5145Z" fill="#16194A"/>
<path d="M143.995 55.5145H145.429C145.665 55.5051 145.9 55.5448 146.12 55.6312C146.3 55.7008 146.46 55.8129 146.587 55.9581C146.711 56.1073 146.806 56.2783 146.867 56.4624C146.931 56.6575 146.97 56.8599 146.984 57.0648C147.009 57.325 146.986 57.5876 146.918 57.8399C146.862 58.0173 146.763 58.1778 146.629 58.3069C146.514 58.4245 146.371 58.5098 146.213 58.5544C146.028 58.6071 145.836 58.6353 145.643 58.6384H144.21L143.995 55.5145ZM145.018 56.2336L145.125 57.938H145.359C145.505 57.9488 145.653 57.9248 145.788 57.868C145.876 57.8151 145.94 57.732 145.97 57.6345C146.019 57.4582 146.032 57.274 146.008 57.0928C146.018 56.8504 145.945 56.6117 145.802 56.4157C145.729 56.3491 145.642 56.2985 145.548 56.2672C145.454 56.2358 145.355 56.2244 145.256 56.2336H145.018Z" fill="#16194A"/>
<path d="M149.272 58.1014H148.179L148.058 58.6151H147.072L148.048 55.4958H149.099L150.472 58.6151H149.463L149.272 58.1014ZM149.029 57.429L148.613 56.3036L148.342 57.429H149.029Z" fill="#16194A"/>
<path d="M150.061 55.5145H152.989L153.04 56.2849H152.055L152.209 58.6198H151.242L151.093 56.2849H150.107L150.061 55.5145Z" fill="#16194A"/>
<path d="M153.465 55.5145H154.432L154.632 58.6338H153.666L153.465 55.5145Z" fill="#16194A"/>
<path d="M155.104 57.0788C155.075 56.8669 155.092 56.6513 155.152 56.4461C155.213 56.2409 155.315 56.0508 155.454 55.888C155.606 55.7389 155.788 55.6238 155.987 55.5505C156.187 55.4772 156.4 55.4474 156.612 55.4631C157.058 55.4387 157.497 55.5876 157.836 55.8787C158.149 56.1893 158.328 56.6099 158.335 57.0508C158.367 57.3555 158.324 57.6634 158.209 57.9473C158.104 58.1774 157.929 58.3685 157.71 58.4937C157.447 58.6337 157.152 58.7014 156.855 58.6898C156.552 58.6997 156.251 58.6423 155.972 58.5217C155.727 58.404 155.52 58.2195 155.375 57.9894C155.208 57.7143 155.114 57.4006 155.104 57.0788ZM156.066 57.0788C156.063 57.3224 156.14 57.5602 156.285 57.7559C156.347 57.824 156.423 57.8778 156.508 57.9133C156.592 57.9488 156.684 57.9652 156.776 57.9614C156.864 57.9671 156.952 57.9518 157.033 57.917C157.114 57.8821 157.186 57.8285 157.243 57.7606C157.363 57.5398 157.406 57.2848 157.364 57.0368C157.367 56.8032 157.289 56.5758 157.145 56.3924C157.082 56.3246 157.005 56.2712 156.919 56.2357C156.834 56.2003 156.742 56.1836 156.65 56.1869C156.561 56.181 156.472 56.1966 156.391 56.2323C156.31 56.2681 156.238 56.323 156.183 56.3924C156.062 56.6014 156.021 56.8466 156.066 57.0835V57.0788Z" fill="#16194A"/>
<path d="M158.76 55.5145H159.661L160.946 57.2422L160.838 55.5145H161.744L161.945 58.6338H161.039L159.76 56.9247L159.867 58.6338H158.961L158.76 55.5145Z" fill="#16194A"/>
<path d="M129.753 60.2448H130.719L130.869 62.5796H132.372L132.424 63.3501H129.953L129.753 60.2448Z" fill="#16194A"/>
<path d="M132.662 60.2448H135.244L135.286 60.9079H133.671L133.703 61.4029H135.211L135.253 62.0426H133.75L133.792 62.659H135.454L135.501 63.3641H132.877L132.662 60.2448Z" fill="#16194A"/>
<path d="M135.59 60.2448H138.522L138.573 61.0153H137.588L137.738 63.3501H136.776L136.626 61.0153H135.641L135.59 60.2448Z" fill="#16194A"/>
<path d="M138.742 60.2448H141.67L141.721 61.0153H140.736L140.89 63.3501H139.923L139.774 61.0153H138.788L138.742 60.2448Z" fill="#16194A"/>
<path d="M142.104 60.2448H144.691L144.733 60.9079H143.117L143.145 61.4029H144.649L144.686 62.0426H143.187L143.224 62.659H144.892L144.938 63.3641H142.305L142.104 60.2448Z" fill="#16194A"/>
<path d="M145.485 63.3641L145.284 60.2448H146.886C147.117 60.2359 147.348 60.2611 147.572 60.3195C147.733 60.3692 147.874 60.469 147.974 60.6043C148.082 60.7506 148.144 60.9265 148.151 61.1086C148.167 61.2691 148.138 61.4309 148.067 61.5756C148.003 61.7019 147.904 61.8072 147.782 61.8791C147.68 61.9402 147.568 61.9828 147.451 62.0052C147.544 62.0294 147.632 62.0688 147.712 62.122C147.773 62.1701 147.827 62.2249 147.876 62.2854C147.931 62.3448 147.981 62.4088 148.025 62.4768L148.548 63.3828H147.46L146.881 62.4488C146.836 62.3562 146.772 62.2736 146.694 62.206C146.621 62.1608 146.537 62.1366 146.451 62.136H146.367L146.447 63.4014L145.485 63.3641ZM146.335 61.4962H146.741C146.826 61.4895 146.91 61.4755 146.993 61.4542C147.053 61.4409 147.106 61.406 147.142 61.3561C147.18 61.3031 147.196 61.2384 147.189 61.174C147.189 61.1304 147.179 61.0872 147.161 61.0477C147.142 61.0082 147.115 60.9732 147.082 60.9452C146.972 60.879 146.845 60.8495 146.718 60.8612H146.293L146.335 61.4962Z" fill="#16194A"/>
</g>
<path d="M150.439 18.7973H149.972L149.762 15.762H150.229L150.439 18.7973Z" fill="#EEC202"/>
<path d="M150.07 13.4272H149.603L149.136 6.99248C149.017 5.31684 148.402 3.7144 147.371 2.38824L147.735 2.12207C148.825 3.52565 149.475 5.22026 149.603 6.99248L150.07 13.4272Z" fill="#EEC202"/>
<path d="M93.5537 0.0954413H140.609C142.475 0.126994 144.263 0.849913 145.626 2.12414C146.989 3.39836 147.83 5.13317 147.987 6.99247L149.645 30.9336C149.719 31.818 149.608 32.7082 149.318 33.5471C149.028 34.3859 148.566 35.1549 147.962 35.8048C147.357 36.4546 146.623 36.9709 145.808 37.3206C144.992 37.6702 144.112 37.8456 143.224 37.8353H139.746L140.353 46.5628L131.009 37.8353H96.1687C94.3026 37.8026 92.5151 37.0787 91.1521 35.8037C89.7891 34.5287 88.9477 32.7933 88.7907 30.9336L87.1143 6.99247C87.0413 6.10697 87.1543 5.216 87.4459 4.37672C87.7375 3.53745 88.2014 2.76842 88.8078 2.11898C89.4141 1.46954 90.1495 0.954036 90.9669 0.605559C91.7842 0.257082 92.6653 0.0833258 93.5537 0.0954413Z" fill="#EEC202"/>
<path d="M105.951 17.7139H106.04C105.577 17.7073 105.13 17.5425 104.773 17.247C104.417 16.9514 104.172 16.5428 104.079 16.0889C104.056 15.8198 104.09 15.549 104.178 15.2937C104.266 15.0384 104.406 14.8043 104.59 14.6065C104.774 14.4086 104.997 14.2514 105.245 14.1448C105.493 14.0382 105.761 13.9847 106.031 13.9876H106.727L114.315 13.2731C114.009 11.9648 113.781 10.6394 113.633 9.30394C113.413 7.10455 114.679 4.39151 116.776 5.36279C117.621 5.75503 117.317 8.48676 117.789 9.56544C118.261 10.6441 122.248 13.8335 123.463 16.1029C123.788 16.2324 124.07 16.4508 124.278 16.7332C124.485 17.0156 124.609 17.3506 124.635 17.6999L125.134 24.9051C125.173 25.4134 125.107 25.9241 124.941 26.406C124.774 26.8878 124.511 27.3305 124.168 27.7069C123.816 28.0771 123.392 28.3713 122.922 28.5713C122.452 28.7713 121.947 28.8728 121.436 28.8696H108.94C108.505 28.8715 108.081 28.7374 107.726 28.4863C107.371 28.2351 107.103 27.8794 106.96 27.4688C106.868 27.2067 106.84 26.9262 106.879 26.6511C106.918 26.376 107.023 26.1144 107.185 25.8884C107.347 25.6625 107.56 25.4789 107.808 25.3533C108.056 25.2276 108.331 25.1636 108.608 25.1666H107.011C106.573 25.1601 106.152 24.9906 105.831 24.6912C105.51 24.3918 105.311 23.9837 105.274 23.5463C105.217 23.2926 105.218 23.0293 105.277 22.7761C105.337 22.523 105.452 22.2864 105.616 22.0843C105.779 21.8821 105.986 21.7196 106.222 21.6089C106.457 21.4982 106.714 21.4421 106.974 21.445H106.124C105.632 21.437 105.16 21.2509 104.795 20.9211C104.43 20.5913 104.197 20.1403 104.14 19.6518C104.115 19.4019 104.144 19.1497 104.224 18.9118C104.305 18.674 104.435 18.4561 104.607 18.2727C104.778 18.0893 104.987 17.9446 105.219 17.8482C105.451 17.7518 105.7 17.7061 105.951 17.7139Z" fill="#16194A"/>
<path d="M128.371 28.8837H130.705C130.885 28.8857 131.063 28.85 131.228 28.7789C131.393 28.7078 131.542 28.6028 131.663 28.4707C131.785 28.3387 131.878 28.1825 131.936 28.0123C131.994 27.8422 132.015 27.6617 131.999 27.4828L131.275 17.0368C131.246 16.6597 131.077 16.307 130.802 16.0478C130.526 15.7887 130.164 15.6418 129.785 15.6359H127.474C127.294 15.634 127.116 15.6697 126.95 15.7407C126.785 15.8118 126.637 15.9167 126.514 16.0487C126.392 16.1806 126.299 16.3367 126.24 16.5069C126.182 16.6771 126.16 16.8576 126.176 17.0368L126.9 27.4828C126.929 27.8564 127.096 28.2059 127.367 28.4644C127.639 28.7229 127.996 28.8722 128.371 28.8837Z" fill="#16194A"/>
</svg>
