<svg width="100" height="40" viewBox="0 0 100 40" fill="none" xmlns="http://www.w3.org/2000/svg">
<path d="M10.196 30.416C8.04133 30.416 6.20667 29.9253 4.692 28.944C3.19867 27.9627 2.15333 26.6187 1.556 24.912L4.724 23.056C5.62 25.5733 7.476 26.832 10.292 26.832C11.6787 26.832 12.7133 26.5653 13.396 26.032C14.1 25.4773 14.452 24.7627 14.452 23.888C14.452 22.9707 14.0787 22.2773 13.332 21.808C12.5853 21.3173 11.2627 20.784 9.364 20.208C8.29733 19.888 7.43333 19.5893 6.772 19.312C6.11067 19.0347 5.40667 18.6507 4.66 18.16C3.93467 17.648 3.39067 17.0187 3.028 16.272C2.66533 15.5253 2.484 14.6507 2.484 13.648C2.484 11.664 3.188 10.096 4.596 8.944C6.004 7.77066 7.7 7.184 9.684 7.184C11.476 7.184 13.044 7.62133 14.388 8.496C15.732 9.37067 16.7667 10.576 17.492 12.112L14.388 13.904C13.4493 11.8133 11.8813 10.768 9.684 10.768C8.61733 10.768 7.764 11.024 7.124 11.536C6.484 12.0267 6.164 12.6987 6.164 13.552C6.164 14.384 6.484 15.0453 7.124 15.536C7.78533 16.0053 8.96933 16.5067 10.676 17.04C11.5293 17.3173 12.148 17.5307 12.532 17.68C12.9373 17.808 13.492 18.0213 14.196 18.32C14.9213 18.6187 15.4653 18.9173 15.828 19.216C16.1907 19.5147 16.5747 19.888 16.98 20.336C17.4067 20.784 17.7053 21.296 17.876 21.872C18.0467 22.448 18.132 23.0987 18.132 23.824C18.132 25.8507 17.396 27.4613 15.924 28.656C14.4733 29.8293 12.564 30.416 10.196 30.416ZM24.3738 10.96C23.9471 11.3867 23.4351 11.6 22.8378 11.6C22.2404 11.6 21.7178 11.3867 21.2698 10.96C20.8431 10.512 20.6298 9.98933 20.6298 9.392C20.6298 8.79467 20.8431 8.28267 21.2698 7.856C21.6964 7.408 22.2191 7.184 22.8378 7.184C23.4564 7.184 23.9791 7.408 24.4058 7.856C24.8324 8.28267 25.0458 8.79467 25.0458 9.392C25.0458 9.98933 24.8218 10.512 24.3738 10.96ZM21.1098 30V14H24.5658V30H21.1098ZM41.3145 14H44.7065V29.264C44.7065 31.696 43.9065 33.5627 42.3065 34.864C40.7065 36.1653 38.7652 36.816 36.4825 36.816C32.7918 36.816 30.2638 35.5253 28.8985 32.944L31.8745 31.216C32.7065 32.8587 34.2638 33.68 36.5465 33.68C38.0398 33.68 39.2025 33.2853 40.0345 32.496C40.8878 31.728 41.3145 30.6507 41.3145 29.264V27.312C40.0132 29.168 38.1572 30.096 35.7465 30.096C33.4852 30.096 31.5758 29.296 30.0185 27.696C28.4612 26.0747 27.6825 24.1227 27.6825 21.84C27.6825 19.5573 28.4612 17.616 30.0185 16.016C31.5758 14.3947 33.4852 13.584 35.7465 13.584C38.1572 13.584 40.0132 14.512 41.3145 16.368V14ZM32.5785 25.424C33.5598 26.384 34.7758 26.864 36.2265 26.864C37.6772 26.864 38.8825 26.384 39.8425 25.424C40.8238 24.464 41.3145 23.2693 41.3145 21.84C41.3145 20.4107 40.8238 19.216 39.8425 18.256C38.8825 17.296 37.6772 16.816 36.2265 16.816C34.7758 16.816 33.5598 17.296 32.5785 18.256C31.6185 19.216 31.1385 20.4107 31.1385 21.84C31.1385 23.2693 31.6185 24.464 32.5785 25.424ZM57.1508 13.584C58.9854 13.584 60.4681 14.1707 61.5988 15.344C62.7294 16.5173 63.2948 18.128 63.2948 20.176V30H59.8388V20.528C59.8388 19.3333 59.5188 18.416 58.8788 17.776C58.2388 17.136 57.3641 16.816 56.2548 16.816C55.0388 16.816 54.0574 17.2 53.3108 17.968C52.5641 18.7147 52.1908 19.8667 52.1908 21.424V30H48.7348V14H52.1908V16.048C53.2361 14.4053 54.8894 13.584 57.1508 13.584ZM75.24 7.6H78.92V30H75.24V7.6ZM91.5883 13.584C93.4229 13.584 94.9056 14.1707 96.0363 15.344C97.1669 16.5173 97.7323 18.128 97.7323 20.176V30H94.2763V20.528C94.2763 19.3333 93.9563 18.416 93.3163 17.776C92.6763 17.136 91.8016 16.816 90.6923 16.816C89.4763 16.816 88.4949 17.2 87.7483 17.968C87.0016 18.7147 86.6283 19.8667 86.6283 21.424V30H83.1723V14H86.6283V16.048C87.6736 14.4053 89.3269 13.584 91.5883 13.584Z" fill="#16194A"/>
<path d="M60.5 38H0.5" stroke="#EEC202" stroke-width="3"/>
</svg>
