<svg width="28" height="28" viewBox="0 0 28 28" fill="none" xmlns="http://www.w3.org/2000/svg">
<path d="M12.4875 1.46284C13.3308 0.647172 14.669 0.647172 15.5124 1.46284C16.1111 2.04194 16.9879 2.22832 17.7704 1.94281C18.8726 1.54066 20.0951 2.08496 20.5337 3.17311C20.8451 3.94567 21.5704 4.47258 22.4013 4.53002C23.5718 4.61093 24.4672 5.60541 24.4253 6.7779C24.3956 7.61033 24.8438 8.38666 25.5796 8.77713C26.6159 9.3271 27.0295 10.5998 26.5143 11.6539C26.1486 12.4023 26.2423 13.2938 26.7556 13.9498C27.4787 14.8737 27.3388 16.2046 26.4394 16.958C25.8009 17.4929 25.5239 18.3455 25.7261 19.1535C26.0108 20.2917 25.3417 21.4506 24.2137 21.7731C23.4128 22.0021 22.813 22.6682 22.669 23.4887C22.4662 24.6442 21.3835 25.4308 20.2218 25.2666C19.3971 25.15 18.5782 25.5146 18.1129 26.2056C17.4576 27.1787 16.1487 27.457 15.1542 26.8345C14.4482 26.3925 13.5517 26.3925 12.8457 26.8345C11.8512 27.457 10.5423 27.1787 9.88697 26.2056C9.42173 25.5146 8.60281 25.15 7.77804 25.2666C6.61635 25.4308 5.53372 24.6442 5.33091 23.4887C5.18692 22.6682 4.5871 22.0021 3.78622 21.7731C2.65817 21.4506 1.98907 20.2917 2.27381 19.1535C2.47596 18.3455 2.19895 17.4929 1.56044 16.958C0.661089 16.2046 0.521209 14.8737 1.24426 13.9498C1.75761 13.2938 1.85131 12.4023 1.48556 11.6539C0.970414 10.5998 1.38394 9.3271 2.42028 8.77713C3.15606 8.38666 3.60427 7.61033 3.57454 6.7779C3.53266 5.60541 4.42809 4.61093 5.59854 4.53002C6.42952 4.47258 7.15474 3.94567 7.46616 3.17311C7.9048 2.08496 9.12731 1.54066 10.2295 1.94281C11.012 2.22832 11.8888 2.04194 12.4875 1.46284Z" fill="#22266A"/>
</svg>
