<svg width="30" height="29" viewBox="0 0 30 29" fill="none" xmlns="http://www.w3.org/2000/svg">
<path d="M13.4875 1.46284C14.3308 0.647172 15.669 0.647172 16.5124 1.46284C17.1111 2.04194 17.9879 2.22832 18.7704 1.94281C19.8726 1.54066 21.0951 2.08496 21.5337 3.17311C21.8451 3.94567 22.5704 4.47258 23.4013 4.53002C24.5718 4.61093 25.4672 5.60541 25.4253 6.7779C25.3956 7.61033 25.8438 8.38666 26.5796 8.77713C27.6159 9.3271 28.0295 10.5998 27.5143 11.6539C27.1486 12.4023 27.2423 13.2938 27.7556 13.9498C28.4787 14.8737 28.3388 16.2046 27.4394 16.958C26.8009 17.4929 26.5239 18.3455 26.7261 19.1535C27.0108 20.2917 26.3417 21.4506 25.2137 21.7731C24.4128 22.0021 23.813 22.6682 23.669 23.4887C23.4662 24.6442 22.3835 25.4308 21.2218 25.2666C20.3971 25.15 19.5782 25.5146 19.1129 26.2056C18.4576 27.1787 17.1487 27.457 16.1542 26.8345C15.4482 26.3925 14.5517 26.3925 13.8457 26.8345C12.8512 27.457 11.5423 27.1787 10.887 26.2056C10.4217 25.5146 9.60281 25.15 8.77804 25.2666C7.61635 25.4308 6.53372 24.6442 6.33091 23.4887C6.18692 22.6682 5.5871 22.0021 4.78622 21.7731C3.65817 21.4506 2.98907 20.2917 3.27381 19.1535C3.47596 18.3455 3.19895 17.4929 2.56044 16.958C1.66109 16.2046 1.52121 14.8737 2.24426 13.9498C2.75761 13.2938 2.85131 12.4023 2.48556 11.6539C1.97041 10.5998 2.38394 9.3271 3.42028 8.77713C4.15606 8.38666 4.60427 7.61033 4.57454 6.7779C4.53266 5.60541 5.42809 4.61093 6.59854 4.53002C7.42952 4.47258 8.15474 3.94567 8.46616 3.17311C8.9048 2.08496 10.1273 1.54066 11.2295 1.94281C12.012 2.22832 12.8888 2.04194 13.4875 1.46284Z" fill="#22266A"/>
<path d="M9.30484 13.9585L12.2629 17.4754C12.7369 18.039 13.578 18.1116 14.1416 17.6376L22.3639 10.7218" stroke="#EEC202" stroke-width="2"/>
</svg>
