<svg width="25" height="24" viewBox="0 0 25 24" fill="none" xmlns="http://www.w3.org/2000/svg">
<g clip-path="url(#clip0_344_7106)">
<path d="M7.92407 21C8.31173 21.8914 8.9513 22.6502 9.76423 23.1831C10.5771 23.716 11.528 23.9999 12.5001 23.9999C13.4721 23.9999 14.423 23.716 15.2359 23.1831C16.0488 22.6502 16.6884 21.8914 17.0761 21H7.92407Z" fill="#374957"/>
<path d="M22.8921 12.5489L21.1561 6.82593C20.6001 4.82428 19.3914 3.0657 17.7219 1.82943C16.0524 0.593158 14.0177 -0.0499525 11.941 0.00220786C9.8642 0.0543683 7.86438 0.79881 6.25902 2.11734C4.65367 3.43586 3.53479 5.25289 3.08005 7.27993L1.73205 12.8169C1.55289 13.5527 1.54318 14.3195 1.70366 15.0596C1.86415 15.7996 2.19063 16.4936 2.65847 17.089C3.12632 17.6845 3.7233 18.1659 4.40437 18.4969C5.08544 18.8279 5.8328 18.9999 6.59005 18.9999H18.1071C18.8878 19 19.6577 18.8172 20.3551 18.4662C21.0525 18.1152 21.658 17.6057 22.1231 16.9787C22.5882 16.3516 22.9 15.6243 23.0335 14.8551C23.1671 14.0859 23.1186 13.2961 22.8921 12.5489Z" fill="#374957"/>
</g>
<defs>
<clipPath id="clip0_344_7106">
<rect width="24" height="24" fill="white" transform="translate(0.5)"/>
</clipPath>
</defs>
</svg>
