<svg width="116" height="113" viewBox="0 0 116 113" fill="none" xmlns="http://www.w3.org/2000/svg">
<path opacity="0.4" d="M110.163 37.116C110.478 37.4204 110.977 37.4204 111.292 37.116C111.515 36.8999 111.842 36.8303 112.134 36.9369C112.545 37.0869 113.002 36.8838 113.165 36.4778C113.282 36.1895 113.552 35.9929 113.862 35.9714C114.299 35.9412 114.633 35.5701 114.618 35.1326C114.606 34.822 114.774 34.5323 115.048 34.3866C115.435 34.1813 115.589 33.7064 115.397 33.3131C115.261 33.0338 115.296 32.7011 115.487 32.4563C115.757 32.1115 115.705 31.6149 115.369 31.3338C115.131 31.1341 115.028 30.816 115.103 30.5145C115.209 30.0897 114.96 29.6573 114.539 29.5369C114.24 29.4515 114.016 29.2029 113.962 28.8968C113.886 28.4655 113.482 28.172 113.049 28.2333C112.741 28.2768 112.436 28.1407 112.262 27.8829C112.017 27.5198 111.529 27.4159 111.158 27.6482C110.894 27.8132 110.56 27.8132 110.296 27.6482C109.925 27.4159 109.437 27.5198 109.192 27.8829C109.019 28.1407 108.713 28.2768 108.405 28.2333C107.972 28.172 107.568 28.4655 107.492 28.8968C107.439 29.2029 107.215 29.4515 106.916 29.5369C106.495 29.6573 106.245 30.0897 106.351 30.5145C106.427 30.816 106.324 31.1341 106.085 31.3338C105.75 31.6149 105.697 32.1115 105.967 32.4563C106.159 32.7011 106.194 33.0338 106.057 33.3131C105.865 33.7064 106.019 34.1813 106.406 34.3866C106.681 34.5323 106.848 34.822 106.837 35.1326C106.821 35.5701 107.155 35.9412 107.592 35.9714C107.902 35.9929 108.173 36.1895 108.289 36.4778C108.453 36.8838 108.909 37.0869 109.32 36.9369C109.612 36.8303 109.939 36.8999 110.163 37.116Z" fill="#22266A"/>
<path opacity="0.4" d="M4.70836 18.2847C5.02305 18.5891 5.52242 18.5891 5.83711 18.2847C6.06053 18.0686 6.38773 17.999 6.67974 18.1056C7.09102 18.2556 7.54722 18.0525 7.7109 17.6465C7.82711 17.3582 8.09774 17.1616 8.40783 17.1401C8.8446 17.1099 9.17874 16.7388 9.16311 16.3013C9.15202 15.9907 9.31927 15.701 9.59384 15.5553C9.98056 15.35 10.1349 14.8751 9.94264 14.4818C9.80616 14.2025 9.84112 13.8698 10.0327 13.625C10.3025 13.2802 10.2503 12.7836 9.9147 12.5025C9.67643 12.3029 9.57306 11.9847 9.6485 11.6832C9.75475 11.2585 9.50507 10.826 9.08412 10.7056C8.78526 10.6202 8.56143 10.3716 8.5077 10.0655C8.43202 9.63424 8.02802 9.34072 7.59452 9.402C7.28675 9.4455 6.98115 9.30944 6.80754 9.05161C6.56301 8.68846 6.07456 8.58463 5.70346 8.81693C5.43999 8.98186 5.10548 8.98186 4.84201 8.81693C4.47091 8.58463 3.98245 8.68846 3.73792 9.05161C3.56431 9.30944 3.25872 9.4455 2.95095 9.402C2.51745 9.34072 2.11345 9.63424 2.03777 10.0655C1.98404 10.3716 1.7602 10.6202 1.46134 10.7056C1.0404 10.826 0.790716 11.2585 0.896969 11.6832C0.972406 11.9847 0.869036 12.3028 0.630766 12.5025C0.295161 12.7836 0.242963 13.2802 0.51278 13.625C0.704342 13.8698 0.739308 14.2025 0.602826 14.4818C0.41059 14.8751 0.564903 15.35 0.951629 15.5553C1.22619 15.701 1.39345 15.9907 1.38235 16.3013C1.36673 16.7388 1.70087 17.1099 2.13764 17.1401C2.44773 17.1616 2.71835 17.3582 2.83457 17.6465C2.99825 18.0525 3.45444 18.2556 3.86573 18.1056C4.15773 17.999 4.48494 18.0686 4.70836 18.2847Z" fill="#22266A"/>
<path d="M53.2017 15.5997C55.2472 13.6213 58.4931 13.6213 60.5386 15.5997C61.9909 17.0044 64.1177 17.4564 66.0157 16.7639C68.6891 15.7885 71.6543 17.1087 72.7183 19.7481C73.4736 21.622 75.2327 22.9 77.2483 23.0394C80.0873 23.2356 82.2592 25.6478 82.1576 28.4917C82.0855 30.5108 83.1727 32.3939 84.9573 33.341C87.4711 34.675 88.4741 37.762 87.2246 40.3188C86.3374 42.134 86.5647 44.2964 87.8099 45.8875C89.5637 48.1286 89.2244 51.3567 87.043 53.1842C85.4942 54.4817 84.8223 56.5496 85.3126 58.5096C86.0033 61.2703 84.3803 64.0813 81.6442 64.8635C79.7016 65.4189 78.2467 67.0347 77.8974 69.0247C77.4055 71.8276 74.7795 73.7355 71.9618 73.3372C69.9613 73.0544 67.9749 73.9388 66.8464 75.6147C65.257 77.9752 62.082 78.6501 59.6699 77.1401C57.9573 76.0681 55.783 76.0681 54.0705 77.1401C51.6583 78.6501 48.4834 77.9752 46.8939 75.6147C45.7654 73.9388 43.7791 73.0544 41.7786 73.3372C38.9608 73.7355 36.3348 71.8276 35.8429 69.0247C35.4936 67.0347 34.0387 65.4189 32.0962 64.8635C29.36 64.0813 27.7371 61.2703 28.4277 58.5096C28.9181 56.5496 28.2461 54.4817 26.6974 53.1842C24.516 51.3567 24.1767 48.1286 25.9305 45.8875C27.1756 44.2964 27.4029 42.134 26.5158 40.3188C25.2662 37.762 26.2693 34.675 28.783 33.341C30.5677 32.3939 31.6548 30.5108 31.5827 28.4917C31.4811 25.6478 33.6531 23.2356 36.492 23.0394C38.5076 22.9 40.2667 21.622 41.0221 19.7481C42.086 17.1087 45.0513 15.7885 47.7247 16.7639C49.6227 17.4564 51.7495 17.0044 53.2017 15.5997Z" fill="#22266A"/>
<path d="M43.0564 45.9087L51.4549 55.894C51.9289 56.4575 52.77 56.5301 53.3335 56.0561L74.732 38.0581" stroke="#EEC202" stroke-width="5.33334"/>
<path opacity="0.4" d="M70.1467 4.99977C70.304 5.15195 70.5537 5.15195 70.711 4.99977C70.8227 4.89172 70.9863 4.85694 71.1323 4.91021C71.338 4.98525 71.5661 4.88369 71.6479 4.68066C71.706 4.53652 71.8413 4.4382 71.9964 4.42749C72.2148 4.41239 72.3818 4.22684 72.374 4.00807C72.3685 3.85276 72.4521 3.70791 72.5894 3.63505C72.7828 3.53244 72.8599 3.29498 72.7638 3.0983C72.6956 2.95867 72.713 2.79233 72.8088 2.66993C72.9437 2.49754 72.9176 2.24923 72.7498 2.10865C72.6307 2.00885 72.579 1.84978 72.6167 1.69901C72.6699 1.48665 72.545 1.27041 72.3345 1.21024C72.1851 1.16752 72.0732 1.04323 72.0463 0.890152C72.0085 0.674543 71.8065 0.527782 71.5897 0.55842C71.4359 0.580173 71.2831 0.512143 71.1963 0.383228C71.074 0.201651 70.8298 0.149739 70.6442 0.265888C70.5125 0.348351 70.3452 0.348351 70.2135 0.265888C70.0279 0.149739 69.7837 0.201651 69.6614 0.383228C69.5746 0.512143 69.4218 0.580173 69.268 0.55842C69.0512 0.527782 68.8492 0.674543 68.8114 0.890152C68.7845 1.04323 68.6726 1.16752 68.5232 1.21024C68.3127 1.27041 68.1878 1.48665 68.241 1.69901C68.2787 1.84978 68.227 2.00885 68.1079 2.10865C67.9401 2.24923 67.914 2.49754 68.0489 2.66993C68.1447 2.79233 68.1621 2.95867 68.0939 3.0983C67.9978 3.29498 68.0749 3.53244 68.2683 3.63505C68.4056 3.70791 68.4892 3.85276 68.4837 4.00807C68.4758 4.22684 68.6429 4.41239 68.8613 4.42749C69.0163 4.4382 69.1517 4.53652 69.2098 4.68066C69.2916 4.88369 69.5197 4.98525 69.7253 4.91021C69.8713 4.85694 70.0349 4.89172 70.1467 4.99977Z" fill="#22266A"/>
<path opacity="0.4" d="M16.5048 76.4019C16.7521 76.6411 17.1445 76.6411 17.3917 76.4019C17.5673 76.2321 17.8244 76.1775 18.0538 76.2612C18.3769 76.3791 18.7354 76.2195 18.864 75.9005C18.9553 75.6739 19.1679 75.5195 19.4116 75.5026C19.7547 75.4789 20.0173 75.1873 20.005 74.8435C19.9963 74.5995 20.1277 74.3718 20.3434 74.2574C20.6473 74.0961 20.7685 73.7229 20.6175 73.4139C20.5103 73.1945 20.5377 72.9331 20.6882 72.7407C20.9002 72.4698 20.8592 72.0796 20.5955 71.8587C20.4083 71.7019 20.3271 71.4519 20.3864 71.215C20.4699 70.8813 20.2737 70.5415 19.9429 70.4469C19.7081 70.3798 19.5323 70.1845 19.49 69.9439C19.4306 69.6051 19.1131 69.3745 18.7725 69.4227C18.5307 69.4568 18.2906 69.3499 18.1542 69.1473C17.9621 68.862 17.5783 68.7804 17.2867 68.963C17.0797 69.0925 16.8169 69.0925 16.6099 68.963C16.3183 68.7804 15.9345 68.862 15.7424 69.1473C15.606 69.3499 15.3658 69.4568 15.124 69.4227C14.7834 69.3745 14.466 69.6051 14.4065 69.9439C14.3643 70.1845 14.1884 70.3798 13.9536 70.4469C13.6229 70.5415 13.4267 70.8813 13.5102 71.215C13.5695 71.4519 13.4882 71.7019 13.301 71.8587C13.0373 72.0796 12.9963 72.4698 13.2083 72.7407C13.3588 72.9331 13.3863 73.1945 13.2791 73.4139C13.128 73.7229 13.2493 74.0961 13.5531 74.2574C13.7689 74.3718 13.9003 74.5995 13.8916 74.8435C13.8793 75.1873 14.1418 75.4789 14.485 75.5026C14.7286 75.5195 14.9413 75.6739 15.0326 75.9005C15.1612 76.2195 15.5196 76.3791 15.8428 76.2612C16.0722 76.1775 16.3293 76.2321 16.5048 76.4019Z" fill="#22266A"/>
<path opacity="0.4" d="M12.8998 42.6614C13.0572 42.8136 13.3069 42.8136 13.4642 42.6614C13.5759 42.5533 13.7395 42.5186 13.8855 42.5718C14.0912 42.6469 14.3193 42.5453 14.4011 42.3423C14.4592 42.1981 14.5945 42.0998 14.7496 42.0891C14.968 42.074 15.135 41.8885 15.1272 41.6697C15.1217 41.5144 15.2053 41.3695 15.3426 41.2967C15.5359 41.1941 15.6131 40.9566 15.517 40.7599C15.4487 40.6203 15.4662 40.4539 15.562 40.3316C15.6969 40.1592 15.6708 39.9108 15.503 39.7703C15.3839 39.6705 15.3322 39.5114 15.3699 39.3606C15.423 39.1483 15.2982 38.932 15.0877 38.8719C14.9383 38.8291 14.8264 38.7048 14.7995 38.5518C14.7617 38.3362 14.5597 38.1894 14.3429 38.22C14.189 38.2418 14.0362 38.1738 13.9494 38.0448C13.8272 37.8633 13.5829 37.8114 13.3974 37.9275C13.2656 38.01 13.0984 38.01 12.9667 37.9275C12.7811 37.8114 12.5369 37.8633 12.4146 38.0448C12.3278 38.1738 12.175 38.2418 12.0211 38.22C11.8044 38.1894 11.6024 38.3362 11.5645 38.5518C11.5377 38.7048 11.4258 38.8291 11.2763 38.8719C11.0659 38.932 10.941 39.1483 10.9941 39.3606C11.0319 39.5114 10.9802 39.6705 10.861 39.7703C10.6932 39.9108 10.6671 40.1592 10.802 40.3316C10.8978 40.4539 10.9153 40.6203 10.8471 40.7599C10.7509 40.9566 10.8281 41.1941 11.0215 41.2967C11.1588 41.3695 11.2424 41.5144 11.2368 41.6697C11.229 41.8885 11.3961 42.074 11.6145 42.0891C11.7695 42.0998 11.9048 42.1981 11.9629 42.3423C12.0448 42.5453 12.2729 42.6469 12.4785 42.5718C12.6245 42.5186 12.7881 42.5533 12.8998 42.6614Z" fill="#22266A"/>
<path opacity="0.4" d="M95.757 65.2593C95.9144 65.4115 96.164 65.4115 96.3214 65.2593C96.4331 65.1512 96.5967 65.1165 96.7427 65.1697C96.9483 65.2448 97.1764 65.1432 97.2583 64.9402C97.3164 64.796 97.4517 64.6977 97.6067 64.687C97.8251 64.6719 97.9922 64.4864 97.9844 64.2676C97.9788 64.1123 98.0625 63.9674 98.1998 63.8946C98.3931 63.792 98.4703 63.5545 98.3742 63.3578C98.3059 63.2182 98.3234 63.0518 98.4192 62.9295C98.5541 62.7571 98.528 62.5087 98.3602 62.3682C98.241 62.2684 98.1894 62.1093 98.2271 61.9585C98.2802 61.7462 98.1554 61.5299 97.9449 61.4698C97.7955 61.427 97.6835 61.3027 97.6567 61.1497C97.6188 60.9341 97.4168 60.7873 97.2001 60.8179C97.0462 60.8397 96.8934 60.7717 96.8066 60.6427C96.6843 60.4612 96.4401 60.4093 96.2546 60.5254C96.1228 60.6079 95.9556 60.6079 95.8238 60.5254C95.6383 60.4093 95.3941 60.4612 95.2718 60.6427C95.185 60.7717 95.0322 60.8397 94.8783 60.8179C94.6616 60.7873 94.4596 60.9341 94.4217 61.1497C94.3949 61.3027 94.2829 61.427 94.1335 61.4698C93.923 61.5299 93.7982 61.7462 93.8513 61.9585C93.889 62.1093 93.8373 62.2684 93.7182 62.3682C93.5504 62.5087 93.5243 62.7571 93.6592 62.9295C93.755 63.0518 93.7725 63.2182 93.7042 63.3578C93.6081 63.5545 93.6853 63.792 93.8786 63.8946C94.0159 63.9674 94.0996 64.1123 94.094 64.2676C94.0862 64.4864 94.2533 64.6719 94.4717 64.687C94.6267 64.6977 94.762 64.796 94.8201 64.9402C94.902 65.1432 95.1301 65.2448 95.3357 65.1697C95.4817 65.1165 95.6453 65.1512 95.757 65.2593Z" fill="#22266A"/>
<path d="M28.3021 95.4723H29.6967V105.969H28.3021V95.4723ZM36.042 95.4723C37.4715 95.4723 38.6561 95.9822 39.5957 97.0018C40.5454 98.0115 41.0203 99.251 41.0203 100.721C41.0203 102.19 40.5454 103.435 39.5957 104.454C38.6561 105.464 37.4715 105.969 36.042 105.969H31.9484V95.4723H36.042ZM36.042 104.649C37.1116 104.649 37.9863 104.274 38.6661 103.525C39.3458 102.775 39.6857 101.84 39.6857 100.721C39.6857 99.6009 39.3458 98.6662 38.6661 97.9165C37.9863 97.1668 37.1116 96.7919 36.042 96.7919H33.3429V104.649H36.042ZM47.8545 104.649H52.383V105.969H46.46V95.4723H47.8545V104.649ZM54.3065 97.1068C54.0566 97.1068 53.8467 97.0218 53.6768 96.8519C53.5068 96.6819 53.4218 96.477 53.4218 96.2371C53.4218 95.9972 53.5068 95.7922 53.6768 95.6223C53.8467 95.4423 54.0566 95.3524 54.3065 95.3524C54.5465 95.3524 54.7514 95.4423 54.9213 95.6223C55.0913 95.7922 55.1762 95.9972 55.1762 96.2371C55.1762 96.477 55.0913 96.6819 54.9213 96.8519C54.7514 97.0218 54.5465 97.1068 54.3065 97.1068ZM53.6468 105.969V98.4713H54.9513V105.969H53.6468ZM60.6753 98.2764C61.555 98.2764 62.2597 98.5563 62.7895 99.1161C63.3194 99.6659 63.5843 100.416 63.5843 101.365V105.969H62.2797V101.44C62.2797 100.831 62.1148 100.361 61.7849 100.031C61.455 99.6909 61.0002 99.521 60.4204 99.521C59.7706 99.521 59.2458 99.7259 58.8459 100.136C58.446 100.536 58.2461 101.155 58.2461 101.995V105.969H56.9415V98.4713H58.2461V99.5509C58.7759 98.7012 59.5856 98.2764 60.6753 98.2764ZM71.7483 105.969H70.1288L66.71 102.415V105.969H65.4054V95.4723H66.71V101.785L69.9489 98.4713H71.6283L68.0445 102.1L71.7483 105.969ZM73.1879 102.82C73.3179 103.49 73.6228 104.009 74.1026 104.379C74.5924 104.749 75.1922 104.934 75.902 104.934C76.8916 104.934 77.6114 104.569 78.0612 103.839L79.1709 104.469C78.4411 105.599 77.3415 106.164 75.872 106.164C74.6824 106.164 73.7127 105.794 72.963 105.054C72.2232 104.304 71.8534 103.36 71.8534 102.22C71.8534 101.09 72.2182 100.151 72.948 99.401C73.6777 98.6512 74.6224 98.2764 75.782 98.2764C76.8817 98.2764 77.7763 98.6662 78.4661 99.446C79.1659 100.216 79.5158 101.145 79.5158 102.235C79.5158 102.425 79.5008 102.62 79.4708 102.82H73.1879ZM75.782 99.506C75.0823 99.506 74.5025 99.7059 74.0426 100.106C73.5828 100.496 73.2979 101.02 73.1879 101.68H78.1962C78.0862 100.97 77.8063 100.431 77.3565 100.061C76.9066 99.6909 76.3818 99.506 75.782 99.506ZM87.2086 95.4723H88.5131V105.969H87.2086V104.679C86.5588 105.669 85.6141 106.164 84.3746 106.164C83.3249 106.164 82.4302 105.784 81.6905 105.024C80.9507 104.254 80.5809 103.32 80.5809 102.22C80.5809 101.12 80.9507 100.191 81.6905 99.431C82.4302 98.6612 83.3249 98.2764 84.3746 98.2764C85.6141 98.2764 86.5588 98.7712 87.2086 99.7609V95.4723ZM84.5395 104.904C85.2992 104.904 85.934 104.649 86.4439 104.139C86.9537 103.62 87.2086 102.98 87.2086 102.22C87.2086 101.46 86.9537 100.826 86.4439 100.316C85.934 99.7959 85.2992 99.5359 84.5395 99.5359C83.7898 99.5359 83.16 99.7959 82.6502 100.316C82.1403 100.826 81.8854 101.46 81.8854 102.22C81.8854 102.98 82.1403 103.62 82.6502 104.139C83.16 104.649 83.7898 104.904 84.5395 104.904Z" fill="#212121"/>
</svg>
