<svg width="25" height="24" viewBox="0 0 25 24" fill="none" xmlns="http://www.w3.org/2000/svg">
<path d="M10.6351 21L10.2731 18.108C9.95372 18.0113 9.60872 17.86 9.23806 17.654C8.86672 17.4473 8.55072 17.226 8.29006 16.99L5.62306 18.125L3.75806 14.875L6.06306 13.137C6.03372 12.9557 6.00939 12.769 5.99006 12.577C5.97139 12.3857 5.96206 12.1997 5.96206 12.019C5.96206 11.851 5.97139 11.6743 5.99006 11.489C6.00872 11.3037 6.03306 11.095 6.06306 10.863L3.75806 9.125L5.62306 5.913L8.27106 7.03C8.56972 6.78133 8.89306 6.557 9.24106 6.357C9.58772 6.157 9.92539 6.00233 10.2541 5.893L10.6341 3H14.3651L14.7271 5.912C15.1104 6.046 15.4491 6.20033 15.7431 6.375C16.0377 6.54967 16.3407 6.76767 16.6521 7.029L19.3771 5.913L21.2421 9.125L18.8601 10.921C18.9147 11.1277 18.9454 11.317 18.9521 11.489C18.9587 11.6623 18.9621 11.8327 18.9621 12C18.9621 12.1553 18.9554 12.319 18.9421 12.491C18.9294 12.6637 18.9001 12.8723 18.8541 13.117L21.1981 14.875L19.3331 18.125L16.6521 16.971C16.3407 17.2323 16.0274 17.4567 15.7121 17.644C15.3961 17.8313 15.0677 17.9793 14.7271 18.088L14.3651 21H10.6351ZM12.4731 14.5C13.1704 14.5 13.7614 14.2577 14.2461 13.773C14.7307 13.2883 14.9731 12.6973 14.9731 12C14.9731 11.3027 14.7307 10.7117 14.2461 10.227C13.7614 9.74233 13.1704 9.5 12.4731 9.5C11.7717 9.5 11.1797 9.74233 10.6971 10.227C10.2144 10.7117 9.97306 11.3027 9.97306 12C9.97306 12.6973 10.2144 13.2883 10.6971 13.773C11.1797 14.2577 11.7717 14.5 12.4731 14.5Z" fill="white"/>
</svg>
