<svg width="149" height="144" viewBox="0 0 149 144" fill="none" xmlns="http://www.w3.org/2000/svg">
<path opacity="0.4" d="M141.053 47.3552C141.454 47.7435 142.091 47.7435 142.493 47.3552C142.778 47.0795 143.195 46.9907 143.568 47.1267C144.093 47.3181 144.675 47.059 144.883 46.5409C145.032 46.1731 145.377 45.9222 145.773 45.8949C146.33 45.8563 146.756 45.3829 146.736 44.8246C146.722 44.4283 146.936 44.0587 147.286 43.8728C147.779 43.611 147.976 43.005 147.731 42.5032C147.557 42.1469 147.601 41.7224 147.846 41.4101C148.19 40.9702 148.123 40.3366 147.695 39.9778C147.391 39.7232 147.259 39.3173 147.356 38.9325C147.491 38.3907 147.173 37.8389 146.635 37.6854C146.254 37.5763 145.969 37.2592 145.9 36.8686C145.803 36.3184 145.288 35.9439 144.735 36.0221C144.342 36.0776 143.952 35.904 143.731 35.575C143.419 35.1117 142.796 34.9792 142.322 35.2756C141.986 35.486 141.559 35.486 141.223 35.2756C140.75 34.9792 140.126 35.1117 139.814 35.575C139.593 35.904 139.203 36.0776 138.81 36.0221C138.257 35.9439 137.742 36.3184 137.645 36.8686C137.577 37.2592 137.291 37.5763 136.91 37.6854C136.373 37.8389 136.054 38.3907 136.19 38.9325C136.286 39.3173 136.154 39.7232 135.85 39.9778C135.422 40.3366 135.355 40.9702 135.7 41.4101C135.944 41.7224 135.989 42.1469 135.815 42.5032C135.569 43.005 135.766 43.611 136.26 43.8728C136.61 44.0587 136.823 44.4283 136.809 44.8246C136.789 45.3829 137.215 45.8563 137.773 45.8949C138.168 45.9222 138.514 46.1731 138.662 46.5409C138.871 47.059 139.453 47.3181 139.978 47.1267C140.35 46.9907 140.768 47.0795 141.053 47.3552Z" fill="#22266A"/>
<path opacity="0.4" d="M6.50721 23.3288C6.90872 23.7171 7.54584 23.7171 7.94734 23.3288C8.2324 23.0531 8.64987 22.9644 9.02242 23.1003C9.54716 23.2918 10.1292 23.0326 10.338 22.5145C10.4863 22.1467 10.8316 21.8959 11.2272 21.8685C11.7845 21.83 12.2108 21.3565 12.1909 20.7983C12.1767 20.402 12.3901 20.0323 12.7404 19.8464C13.2338 19.5846 13.4307 18.9786 13.1854 18.4768C13.0113 18.1205 13.0559 17.696 13.3003 17.3837C13.6446 16.9438 13.578 16.3102 13.1498 15.9515C12.8458 15.6968 12.7139 15.2909 12.8101 14.9062C12.9457 14.3643 12.6272 13.8125 12.0901 13.659C11.7088 13.55 11.4232 13.2328 11.3546 12.8422C11.2581 12.292 10.7426 11.9175 10.1896 11.9957C9.79688 12.0512 9.40699 11.8776 9.18548 11.5487C8.8735 11.0853 8.2503 10.9529 7.77683 11.2493C7.44068 11.4597 7.01388 11.4597 6.67773 11.2493C6.20426 10.9529 5.58106 11.0853 5.26907 11.5487C5.04757 11.8776 4.65768 12.0512 4.265 11.9957C3.71192 11.9175 3.19647 12.292 3.09991 12.8422C3.03136 13.2328 2.74578 13.55 2.36447 13.659C1.82741 13.8125 1.50884 14.3643 1.64441 14.9062C1.74066 15.2909 1.60877 15.6968 1.30477 15.9515C0.876586 16.3102 0.809988 16.9438 1.15424 17.3837C1.39864 17.696 1.44325 18.1205 1.26912 18.4768C1.02386 18.9786 1.22074 19.5846 1.71415 19.8464C2.06445 20.0323 2.27785 20.402 2.26369 20.7983C2.24376 21.3565 2.67008 21.83 3.22733 21.8685C3.62296 21.8959 3.96825 22.1467 4.11651 22.5145C4.32535 23.0326 4.90739 23.2918 5.43214 23.1003C5.80469 22.9644 6.22216 23.0531 6.50721 23.3288Z" fill="#22266A"/>
<path d="M68.3779 19.9031C70.9877 17.3789 75.129 17.3789 77.7388 19.9031C79.5917 21.6953 82.3052 22.272 84.7268 21.3885C88.1376 20.144 91.9209 21.8284 93.2783 25.1959C94.2421 27.5867 96.4864 29.2173 99.0581 29.3951C102.68 29.6455 105.451 32.7231 105.322 36.3515C105.23 38.9277 106.617 41.3301 108.894 42.5385C112.101 44.2405 113.381 48.1791 111.786 51.4412C110.655 53.7572 110.945 56.5161 112.533 58.5462C114.771 61.4055 114.338 65.5241 111.555 67.8557C109.579 69.5111 108.721 72.1495 109.347 74.6502C110.228 78.1724 108.158 81.7589 104.667 82.7569C102.188 83.4655 100.332 85.5271 99.8863 88.066C99.2586 91.6422 95.9082 94.0764 92.3132 93.5682C89.7608 93.2074 87.2265 94.3358 85.7867 96.474C83.7588 99.4856 79.708 100.347 76.6304 98.4202C74.4454 97.0525 71.6713 97.0525 69.4863 98.4202C66.4088 100.347 62.358 99.4856 60.33 96.474C58.8903 94.3358 56.3559 93.2074 53.8036 93.5682C50.2085 94.0764 46.8581 91.6422 46.2305 88.066C45.7849 85.5271 43.9286 83.4655 41.4501 82.7569C37.9592 81.7589 35.8885 78.1724 36.7697 74.6502C37.3953 72.1495 36.5381 69.5111 34.5621 67.8557C31.7789 65.5241 31.346 61.4055 33.5836 58.5462C35.1722 56.5161 35.4622 53.7572 34.3304 51.4412C32.7361 48.1791 34.0159 44.2405 37.223 42.5385C39.5 41.3301 40.8871 38.9277 40.7951 36.3515C40.6655 32.7231 43.4365 29.6455 47.0587 29.3951C49.6303 29.2173 51.8747 27.5867 52.8384 25.1959C54.1958 21.8284 57.9791 20.144 61.39 21.3885C63.8116 22.272 66.5251 21.6953 68.3779 19.9031Z" fill="#22266A"/>
<path d="M55.4338 58.5733L66.1491 71.3131C66.7539 72.0321 67.827 72.1247 68.546 71.52L95.8475 48.5569" stroke="#EEC202" stroke-width="6.8046"/>
<path opacity="0.4" d="M89.9973 6.37906C90.198 6.57323 90.5166 6.57323 90.7173 6.37906C90.8599 6.24121 91.0686 6.19684 91.2549 6.2648C91.5172 6.36054 91.8083 6.23097 91.9127 5.97193C91.9868 5.78802 92.1595 5.66259 92.3573 5.64891C92.6359 5.62965 92.8491 5.39291 92.8391 5.1138C92.832 4.91564 92.9387 4.73083 93.1139 4.63788C93.3606 4.50695 93.459 4.20398 93.3364 3.95306C93.2493 3.7749 93.2716 3.56268 93.3938 3.40652C93.5659 3.18657 93.5326 2.86975 93.3185 2.6904C93.1665 2.56306 93.1006 2.36011 93.1487 2.16775C93.2165 1.89681 93.0572 1.62092 92.7887 1.54415C92.598 1.48965 92.4553 1.33107 92.421 1.13576C92.3727 0.860674 92.115 0.673429 91.8384 0.712518C91.6421 0.740271 91.4471 0.653475 91.3364 0.488997C91.1804 0.25733 90.8688 0.191097 90.6321 0.339287C90.464 0.444498 90.2506 0.444498 90.0825 0.339287C89.8458 0.191097 89.5342 0.25733 89.3782 0.488997C89.2674 0.653474 89.0725 0.740271 88.8762 0.712518C88.5996 0.673429 88.3419 0.860674 88.2936 1.13576C88.2593 1.33107 88.1165 1.48965 87.9259 1.54415C87.6574 1.62092 87.4981 1.89681 87.5659 2.16775C87.614 2.36011 87.548 2.56306 87.396 2.6904C87.1819 2.86975 87.1486 3.18657 87.3208 3.40652C87.443 3.56268 87.4653 3.7749 87.3782 3.95306C87.2556 4.20398 87.354 4.50695 87.6007 4.63788C87.7759 4.73083 87.8826 4.91564 87.8755 5.1138C87.8655 5.39291 88.0787 5.62965 88.3573 5.64891C88.5551 5.66259 88.7278 5.78802 88.8019 5.97193C88.9063 6.23097 89.1973 6.36054 89.4597 6.2648C89.646 6.19684 89.8547 6.24121 89.9973 6.37906Z" fill="#22266A"/>
<path opacity="0.4" d="M21.5578 97.4786C21.8733 97.7837 22.3739 97.7837 22.6894 97.4786C22.9133 97.262 23.2414 97.1922 23.5341 97.299C23.9464 97.4495 24.4037 97.2459 24.5678 96.8388C24.6843 96.5498 24.9556 96.3527 25.2664 96.3312C25.7043 96.3009 26.0392 95.9289 26.0236 95.4903C26.0124 95.1789 26.1801 94.8885 26.4554 94.7424C26.843 94.5367 26.9977 94.0606 26.805 93.6663C26.6682 93.3863 26.7033 93.0528 26.8953 92.8075C27.1658 92.4618 27.1134 91.964 26.777 91.6821C26.5382 91.482 26.4345 91.1631 26.5101 90.8608C26.6167 90.4351 26.3664 90.0015 25.9444 89.8809C25.6448 89.7952 25.4204 89.546 25.3665 89.2391C25.2907 88.8068 24.8857 88.5126 24.4511 88.574C24.1426 88.6176 23.8362 88.4812 23.6622 88.2228C23.4171 87.8587 22.9274 87.7547 22.5554 87.9875C22.2913 88.1529 21.9559 88.1529 21.6918 87.9875C21.3198 87.7547 20.8302 87.8587 20.585 88.2228C20.411 88.4812 20.1046 88.6176 19.7961 88.574C19.3615 88.5126 18.9565 88.8068 18.8807 89.2391C18.8268 89.546 18.6024 89.7952 18.3028 89.8809C17.8809 90.0015 17.6306 90.4351 17.7371 90.8608C17.8127 91.1631 17.7091 91.482 17.4702 91.6821C17.1338 91.964 17.0815 92.4618 17.3519 92.8075C17.544 93.0528 17.579 93.3863 17.4422 93.6663C17.2495 94.0606 17.4042 94.5367 17.7919 94.7424C18.0671 94.8885 18.2348 95.1789 18.2237 95.4903C18.208 95.9289 18.5429 96.3009 18.9808 96.3312C19.2916 96.3527 19.5629 96.5498 19.6794 96.8388C19.8435 97.2459 20.3008 97.4495 20.7131 97.299C21.0059 97.1922 21.3339 97.262 21.5578 97.4786Z" fill="#22266A"/>
<path opacity="0.4" d="M16.9582 54.4307C17.1589 54.6249 17.4775 54.6249 17.6783 54.4307C17.8208 54.2928 18.0295 54.2485 18.2158 54.3164C18.4782 54.4122 18.7692 54.2826 18.8736 54.0236C18.9477 53.8397 19.1204 53.7142 19.3182 53.7005C19.5968 53.6813 19.81 53.4445 19.8 53.1654C19.7929 52.9673 19.8996 52.7825 20.0748 52.6895C20.3215 52.5586 20.4199 52.2556 20.2973 52.0047C20.2102 51.8265 20.2325 51.6143 20.3548 51.4582C20.5269 51.2382 20.4936 50.9214 20.2795 50.742C20.1275 50.6147 20.0615 50.4117 20.1097 50.2194C20.1774 49.9484 20.0182 49.6726 19.7496 49.5958C19.559 49.5413 19.4162 49.3827 19.3819 49.1874C19.3336 48.9123 19.0759 48.7251 18.7994 48.7642C18.603 48.7919 18.4081 48.7051 18.2973 48.5406C18.1413 48.309 17.8297 48.2427 17.593 48.3909C17.4249 48.4961 17.2115 48.4961 17.0435 48.3909C16.8067 48.2427 16.4951 48.309 16.3391 48.5406C16.2284 48.7051 16.0334 48.7919 15.8371 48.7642C15.5605 48.7251 15.3028 48.9123 15.2545 49.1874C15.2203 49.3827 15.0775 49.5413 14.8868 49.5958C14.6183 49.6726 14.459 49.9484 14.5268 50.2194C14.5749 50.4117 14.509 50.6147 14.357 50.742C14.1429 50.9214 14.1096 51.2382 14.2817 51.4582C14.4039 51.6143 14.4262 51.8265 14.3392 52.0047C14.2165 52.2556 14.315 52.5586 14.5617 52.6895C14.7368 52.7825 14.8435 52.9673 14.8364 53.1654C14.8265 53.4445 15.0396 53.6813 15.3183 53.7005C15.5161 53.7142 15.6887 53.8397 15.7628 54.0236C15.8673 54.2826 16.1583 54.4122 16.4207 54.3164C16.6069 54.2485 16.8157 54.2928 16.9582 54.4307Z" fill="#22266A"/>
<path opacity="0.4" d="M122.673 83.2621C122.873 83.4562 123.192 83.4562 123.393 83.2621C123.535 83.1242 123.744 83.0798 123.93 83.1478C124.193 83.2435 124.484 83.114 124.588 82.8549C124.662 82.671 124.835 82.5456 125.033 82.5319C125.311 82.5126 125.524 82.2759 125.514 81.9968C125.507 81.7986 125.614 81.6138 125.789 81.5209C126.036 81.39 126.134 81.087 126.012 80.8361C125.925 80.6579 125.947 80.4457 126.069 80.2895C126.241 80.0696 126.208 79.7527 125.994 79.5734C125.842 79.4461 125.776 79.2431 125.824 79.0507C125.892 78.7798 125.733 78.5039 125.464 78.4272C125.273 78.3726 125.131 78.2141 125.096 78.0188C125.048 77.7437 124.79 77.5564 124.514 77.5955C124.317 77.6233 124.122 77.5365 124.012 77.372C123.856 77.1403 123.544 77.0741 123.307 77.2223C123.139 77.3275 122.926 77.3275 122.758 77.2223C122.521 77.0741 122.209 77.1403 122.053 77.372C121.943 77.5365 121.748 77.6233 121.551 77.5955C121.275 77.5564 121.017 77.7437 120.969 78.0188C120.935 78.2141 120.792 78.3726 120.601 78.4272C120.333 78.5039 120.173 78.7798 120.241 79.0507C120.289 79.2431 120.223 79.4461 120.071 79.5734C119.857 79.7527 119.824 80.0696 119.996 80.2895C120.118 80.4457 120.141 80.6579 120.054 80.8361C119.931 81.087 120.029 81.39 120.276 81.5209C120.451 81.6138 120.558 81.7986 120.551 81.9968C120.541 82.2759 120.754 82.5126 121.033 82.5319C121.23 82.5456 121.403 82.671 121.477 82.8549C121.582 83.114 121.873 83.2435 122.135 83.1478C122.321 83.0798 122.53 83.1242 122.673 83.2621Z" fill="#22266A"/>
<path d="M45.5665 136.037C44.3166 136.037 43.2452 135.743 42.3524 135.157C41.4724 134.57 40.8538 133.767 40.4967 132.746L42.0272 131.866C42.5501 133.486 43.7426 134.296 45.6048 134.296C46.5231 134.296 47.2246 134.111 47.7092 133.741C48.1939 133.358 48.4362 132.855 48.4362 132.23C48.4362 131.592 48.1939 131.114 47.7092 130.795C47.2246 130.476 46.4147 130.138 45.2795 129.781C44.7183 129.602 44.2911 129.462 43.9977 129.36C43.7044 129.245 43.3345 129.079 42.8881 128.863C42.4545 128.633 42.1292 128.403 41.9124 128.174C41.6956 127.931 41.4979 127.619 41.3193 127.236C41.1535 126.854 41.0706 126.42 41.0706 125.935C41.0706 124.775 41.4788 123.856 42.295 123.18C43.1113 122.492 44.1061 122.147 45.2795 122.147C46.3381 122.147 47.2564 122.415 48.0344 122.951C48.8252 123.487 49.4183 124.194 49.8137 125.075L48.3214 125.935C47.7475 124.558 46.7335 123.869 45.2795 123.869C44.5525 123.869 43.9658 124.048 43.5194 124.405C43.073 124.762 42.8498 125.247 42.8498 125.859C42.8498 126.446 43.0603 126.892 43.4812 127.198C43.9021 127.504 44.6291 127.823 45.6622 128.155C46.032 128.269 46.2935 128.352 46.4465 128.403C46.5996 128.454 46.8355 128.544 47.1544 128.671C47.486 128.799 47.7283 128.901 47.8814 128.977C48.0344 129.054 48.2385 129.162 48.4936 129.303C48.7614 129.443 48.9591 129.577 49.0867 129.704C49.2142 129.832 49.3609 129.991 49.5267 130.183C49.7053 130.361 49.8328 130.546 49.9093 130.737C49.9859 130.929 50.0496 131.152 50.1006 131.407C50.1644 131.649 50.1963 131.911 50.1963 132.191C50.1963 133.365 49.769 134.302 48.9145 135.004C48.06 135.692 46.944 136.037 45.5665 136.037ZM58.7313 126.222H60.3957V135.788H58.7313V134.411C58.0553 135.495 57.0222 136.037 55.632 136.037C54.5096 136.037 53.6105 135.686 52.9345 134.985C52.2585 134.27 51.9205 133.307 51.9205 132.096V126.222H53.5849V132C53.5849 132.778 53.7954 133.384 54.2163 133.818C54.6372 134.238 55.2175 134.449 55.9572 134.449C56.7863 134.449 57.4559 134.194 57.966 133.684C58.4762 133.161 58.7313 132.364 58.7313 131.292V126.222ZM67.4256 136.037C65.9844 136.037 64.7855 135.559 63.8289 134.602C62.8723 133.633 62.3941 132.434 62.3941 131.005C62.3941 129.577 62.8723 128.384 63.8289 127.428C64.7855 126.458 65.9844 125.974 67.4256 125.974C68.3694 125.974 69.2176 126.203 69.9701 126.662C70.7226 127.109 71.2838 127.715 71.6537 128.48L70.2571 129.283C70.0147 128.773 69.6385 128.365 69.1283 128.059C68.6309 127.753 68.0633 127.6 67.4256 127.6C66.469 127.6 65.6655 127.925 65.0151 128.576C64.3773 129.226 64.0585 130.036 64.0585 131.005C64.0585 131.962 64.3773 132.765 65.0151 133.416C65.6655 134.066 66.469 134.391 67.4256 134.391C68.0633 134.391 68.6373 134.245 69.1474 133.951C69.6576 133.645 70.0466 133.237 70.3145 132.727L71.7302 133.55C71.322 134.302 70.7353 134.908 69.9701 135.367C69.2048 135.814 68.3567 136.037 67.4256 136.037ZM77.7386 136.037C76.2974 136.037 75.0985 135.559 74.1419 134.602C73.1854 133.633 72.7071 132.434 72.7071 131.005C72.7071 129.577 73.1854 128.384 74.1419 127.428C75.0985 126.458 76.2974 125.974 77.7386 125.974C78.6825 125.974 79.5306 126.203 80.2831 126.662C81.0356 127.109 81.5968 127.715 81.9667 128.48L80.5701 129.283C80.3278 128.773 79.9515 128.365 79.4413 128.059C78.9439 127.753 78.3763 127.6 77.7386 127.6C76.7821 127.6 75.9785 127.925 75.3281 128.576C74.6904 129.226 74.3715 130.036 74.3715 131.005C74.3715 131.962 74.6904 132.765 75.3281 133.416C75.9785 134.066 76.7821 134.391 77.7386 134.391C78.3763 134.391 78.9503 134.245 79.4605 133.951C79.9706 133.645 80.3596 133.237 80.6275 132.727L82.0432 133.55C81.6351 134.302 81.0484 134.908 80.2831 135.367C79.5179 135.814 78.6697 136.037 77.7386 136.037ZM84.7228 131.77C84.8886 132.625 85.2776 133.288 85.8898 133.76C86.5148 134.232 87.28 134.468 88.1856 134.468C89.4482 134.468 90.3666 134.002 90.9405 133.071L92.3562 133.875C91.4252 135.316 90.0222 136.037 88.1473 136.037C86.6296 136.037 85.3924 135.565 84.4358 134.621C83.492 133.665 83.0201 132.459 83.0201 131.005C83.0201 129.564 83.4856 128.365 84.4167 127.409C85.3477 126.452 86.553 125.974 88.0325 125.974C89.4355 125.974 90.577 126.471 91.457 127.466C92.3498 128.448 92.7962 129.634 92.7962 131.024C92.7962 131.267 92.7771 131.515 92.7388 131.77H84.7228ZM88.0325 127.542C87.1397 127.542 86.4 127.798 85.8133 128.308C85.2266 128.805 84.8631 129.475 84.7228 130.317H91.1127C90.9724 129.411 90.6153 128.722 90.0413 128.25C89.4674 127.778 88.7978 127.542 88.0325 127.542ZM95.7707 128.805C95.7707 129.175 95.9557 129.475 96.3255 129.704C96.6954 129.921 97.1418 130.1 97.6647 130.24C98.1877 130.368 98.7106 130.521 99.2335 130.699C99.7564 130.865 100.203 131.158 100.573 131.579C100.943 131.987 101.128 132.517 101.128 133.167C101.128 134.034 100.79 134.729 100.114 135.252C99.4503 135.775 98.5958 136.037 97.5499 136.037C96.6189 136.037 95.8217 135.833 95.1585 135.425C94.4953 135.016 94.0234 134.474 93.7428 133.798L95.1777 132.976C95.3307 133.435 95.6177 133.798 96.0386 134.066C96.4595 134.334 96.9632 134.468 97.5499 134.468C98.0984 134.468 98.5512 134.366 98.9083 134.162C99.2654 133.945 99.444 133.613 99.444 133.167C99.444 132.797 99.259 132.504 98.8891 132.287C98.5193 132.057 98.0729 131.879 97.5499 131.751C97.027 131.611 96.5041 131.452 95.9812 131.273C95.4582 131.095 95.0118 130.801 94.642 130.393C94.2721 129.985 94.0872 129.462 94.0872 128.824C94.0872 127.995 94.406 127.313 95.0437 126.777C95.6942 126.242 96.5041 125.974 97.4734 125.974C98.2514 125.974 98.9402 126.152 99.5396 126.509C100.152 126.854 100.611 127.338 100.917 127.963L99.5205 128.748C99.1761 127.931 98.4938 127.523 97.4734 127.523C97.0015 127.523 96.5998 127.638 96.2681 127.868C95.9365 128.085 95.7707 128.397 95.7707 128.805ZM103.935 128.805C103.935 129.175 104.12 129.475 104.49 129.704C104.86 129.921 105.306 130.1 105.829 130.24C106.352 130.368 106.875 130.521 107.398 130.699C107.921 130.865 108.367 131.158 108.737 131.579C109.107 131.987 109.292 132.517 109.292 133.167C109.292 134.034 108.954 134.729 108.278 135.252C107.615 135.775 106.76 136.037 105.714 136.037C104.783 136.037 103.986 135.833 103.323 135.425C102.66 135.016 102.188 134.474 101.907 133.798L103.342 132.976C103.495 133.435 103.782 133.798 104.203 134.066C104.624 134.334 105.128 134.468 105.714 134.468C106.263 134.468 106.716 134.366 107.073 134.162C107.43 133.945 107.608 133.613 107.608 133.167C107.608 132.797 107.423 132.504 107.054 132.287C106.684 132.057 106.237 131.879 105.714 131.751C105.191 131.611 104.669 131.452 104.146 131.273C103.623 131.095 103.176 130.801 102.806 130.393C102.437 129.985 102.252 129.462 102.252 128.824C102.252 127.995 102.57 127.313 103.208 126.777C103.859 126.242 104.669 125.974 105.638 125.974C106.416 125.974 107.105 126.152 107.704 126.509C108.316 126.854 108.775 127.338 109.082 127.963L107.685 128.748C107.341 127.931 106.658 127.523 105.638 127.523C105.166 127.523 104.764 127.638 104.433 127.868C104.101 128.085 103.935 128.397 103.935 128.805Z" fill="#212121"/>
</svg>
